<svg xmlns="http://www.w3.org/2000/svg" xmlns:xlink="http://www.w3.org/1999/xlink" width="1030" height="473.028" viewBox="0 0 1030 473.028">
  <defs>
    <linearGradient id="linear-gradient" x1="0.146" y1="0.854" x2="0.854" y2="0.146" gradientUnits="objectBoundingBox">
      <stop offset="0" stop-color="#ebeaea"/>
      <stop offset="1" stop-color="#fff"/>
    </linearGradient>
    <linearGradient id="linear-gradient-5" x1="0.146" y1="0.854" x2="0.854" y2="0.146" xlink:href="#linear-gradient"/>
  </defs>
  <g id="Grupo_152767" data-name="Grupo 152767" transform="translate(-285 -9323)">
    <path id="Trazado_266185" data-name="Trazado 266185" d="M0,0H234.182a40.324,40.324,0,0,1,40.324,40.324v2.349A40.325,40.325,0,0,1,234.182,83H0Z" transform="translate(333.052 9337.132)" fill="#48a5f0"/>
    <path id="Trazado_266191" data-name="Trazado 266191" d="M0,0H234.182a40.324,40.324,0,0,1,40.324,40.324v2.349A40.324,40.324,0,0,1,234.182,83H0Z" transform="translate(679.797 9337.252)" fill="#a2e6b0"/>
    <path id="Trazado_266195" data-name="Trazado 266195" d="M0,0H234.182a40.324,40.324,0,0,1,40.324,40.324v2.349A40.324,40.324,0,0,1,234.182,83H0Z" transform="translate(1026.235 9337.252)" fill="#cfbdb0"/>
    <g id="Grupo_152484" data-name="Grupo 152484" transform="translate(351.64 9323)">
      <g id="Grupo_152483" data-name="Grupo 152483">
        <g id="Grupo_152482" data-name="Grupo 152482">
          <g id="Grupo_152479" data-name="Grupo 152479">
            <path id="Trazado_114074" data-name="Trazado 114074" d="M414.566,1013.522h-186.6A34.1,34.1,0,0,1,193.9,979.459V682.744a34.1,34.1,0,0,1,34.063-34.063H408.371a52.807,52.807,0,0,0,47.663-30.416c9.478-20.319,5.234-43.513-11.642-63.637-5.029-6-15.9-11.062-23.737-11.062H210.806v-3.074H420.654c8.763,0,20.467,5.455,26.091,12.161,9.2,10.964,14.786,22.716,16.616,34.929a55.686,55.686,0,0,1-54.991,64.172H227.962a31.024,31.024,0,0,0-30.989,30.989V979.459a31.024,31.024,0,0,0,30.989,30.989h186.6a31.024,31.024,0,0,0,30.989-30.989v-5.835h3.074v5.835A34.1,34.1,0,0,1,414.566,1013.522Z" transform="translate(-193.899 -540.493)" fill="#48a5f0"/>
          </g>
          <g id="Grupo_152481" data-name="Grupo 152481" transform="translate(245.102 425.445)">
            <g id="Grupo_152480" data-name="Grupo 152480">
              <path id="Trazado_114075" data-name="Trazado 114075" d="M448.247,961.99a8.09,8.09,0,1,0-8.09,8.09A8.09,8.09,0,0,0,448.247,961.99Z" transform="translate(-432.066 -953.9)" fill="#48a5f0"/>
            </g>
          </g>
        </g>
      </g>
    </g>
    <g id="Grupo_152490" data-name="Grupo 152490" transform="translate(698.268 9323)">
      <g id="Grupo_152489" data-name="Grupo 152489">
        <g id="Grupo_152488" data-name="Grupo 152488">
          <g id="Grupo_152485" data-name="Grupo 152485">
            <path id="Trazado_114076" data-name="Trazado 114076" d="M751.387,1013.522H564.782a34.1,34.1,0,0,1-34.063-34.063V682.744a34.1,34.1,0,0,1,34.063-34.063h180.41a52.617,52.617,0,0,0,52.556-52.706c-.08-28.9-23.892-52.408-53.08-52.408H547.626v-3.074H744.668a56.025,56.025,0,0,1,39.481,16.286,55.464,55.464,0,0,1-38.957,94.976H564.782a31.024,31.024,0,0,0-30.989,30.989V979.459a31.024,31.024,0,0,0,30.989,30.989H751.387a31.024,31.024,0,0,0,30.988-30.989v-2.453h3.074v2.453A34.1,34.1,0,0,1,751.387,1013.522Z" transform="translate(-530.719 -540.493)" fill="#a2e6b0"/>
          </g>
          <g id="Grupo_152487" data-name="Grupo 152487" transform="translate(245.103 428.826)">
            <g id="Grupo_152486" data-name="Grupo 152486">
              <path id="Trazado_114077" data-name="Trazado 114077" d="M785.067,965.276a8.09,8.09,0,1,0-8.09,8.09A8.092,8.092,0,0,0,785.067,965.276Z" transform="translate(-768.887 -957.185)" fill="#a2e6b0"/>
            </g>
          </g>
        </g>
      </g>
    </g>
    <g id="Grupo_152495" data-name="Grupo 152495" transform="translate(1044.897 9323)">
      <g id="Grupo_152494" data-name="Grupo 152494">
        <g id="Grupo_152491" data-name="Grupo 152491">
          <path id="Trazado_114078" data-name="Trazado 114078" d="M1088.207,1013.522H901.6a34.1,34.1,0,0,1-34.062-34.063V682.744A34.1,34.1,0,0,1,901.6,648.681h180.41a52.619,52.619,0,0,0,52.557-52.706c-.081-28.9-23.893-52.408-53.081-52.408H884.446v-3.074h197.041a56.028,56.028,0,0,1,39.482,16.286,55.465,55.465,0,0,1-38.958,94.976H901.6a31.023,31.023,0,0,0-30.988,30.989V979.459a31.023,31.023,0,0,0,30.988,30.989h186.605a31.024,31.024,0,0,0,30.989-30.989v-2.453h3.074v2.453A34.1,34.1,0,0,1,1088.207,1013.522Z" transform="translate(-867.54 -540.493)" fill="#cfbdb0"/>
        </g>
        <g id="Grupo_152493" data-name="Grupo 152493" transform="translate(245.102 428.826)">
          <g id="Grupo_152492" data-name="Grupo 152492">
            <path id="Trazado_114079" data-name="Trazado 114079" d="M1121.887,965.276a8.09,8.09,0,1,0-8.09,8.09A8.091,8.091,0,0,0,1121.887,965.276Z" transform="translate(-1105.707 -957.185)" fill="#cfbdb0"/>
          </g>
        </g>
      </g>
    </g>
    <g id="Grupo_152496" data-name="Grupo 152496" transform="translate(287.465 9334.282)" opacity="0.2">
      <path id="Trazado_114080" data-name="Trazado 114080" d="M221.331,596.35a44.931,44.931,0,1,1-44.9-44.894A44.9,44.9,0,0,1,221.331,596.35Z" transform="translate(-131.54 -551.456)"/>
    </g>
    <g id="Grupo_152497" data-name="Grupo 152497" transform="translate(634.093 9334.282)" opacity="0.2">
      <path id="Trazado_114081" data-name="Trazado 114081" d="M558.151,596.35a44.9,44.9,0,1,1-65.017-40.142,44.43,44.43,0,0,1,9.793-3.558,44.931,44.931,0,0,1,55.224,43.7Z" transform="translate(-468.36 -551.456)"/>
    </g>
    <g id="Grupo_152498" data-name="Grupo 152498" transform="translate(980.722 9334.282)" opacity="0.2">
      <path id="Trazado_114082" data-name="Trazado 114082" d="M894.971,596.35a44.895,44.895,0,1,1-65.017-40.142,44.44,44.44,0,0,1,9.794-3.558,44.93,44.93,0,0,1,55.223,43.7Z" transform="translate(-805.181 -551.456)"/>
    </g>
    <path id="Trazado_114083" data-name="Trazado 114083" d="M221.862,595.82a44.931,44.931,0,1,1-44.9-44.9A44.9,44.9,0,0,1,221.862,595.82Z" transform="translate(155.94 8782.811)" fill="url(#linear-gradient)"/>
    <path id="Trazado_266186" data-name="Trazado 266186" d="M41.757,0A41.757,41.757,0,1,1,0,41.757,41.757,41.757,0,0,1,41.757,0Z" transform="matrix(0.16, -0.987, 0.987, 0.16, 285, 9413.16)" fill="#f9f9f9"/>
    <path id="Trazado_114084" data-name="Trazado 114084" d="M221.862,595.82a44.931,44.931,0,1,1-44.9-44.9A44.9,44.9,0,0,1,221.862,595.82Z" transform="translate(155.94 8782.811)" fill="url(#linear-gradient)"/>
    <path id="Trazado_266187" data-name="Trazado 266187" d="M41.757,0A41.757,41.757,0,1,1,0,41.757,41.757,41.757,0,0,1,41.757,0Z" transform="matrix(0.16, -0.987, 0.987, 0.16, 285, 9413.16)" fill="#f9f9f9"/>
    <path id="Trazado_114085" data-name="Trazado 114085" d="M558.682,595.82a44.931,44.931,0,1,1-44.9-44.9A44.895,44.895,0,0,1,558.682,595.82Z" transform="translate(165.749 8782.811)" fill="url(#linear-gradient)"/>
    <path id="Trazado_266189" data-name="Trazado 266189" d="M41.757,0A41.757,41.757,0,1,1,0,41.757,41.757,41.757,0,0,1,41.757,0Z" transform="translate(629.301 9409.677) rotate(-76.717)" fill="#f9f9f9"/>
    <path id="Trazado_114086" data-name="Trazado 114086" d="M558.682,595.82a44.931,44.931,0,1,1-44.9-44.9A44.895,44.895,0,0,1,558.682,595.82Z" transform="translate(165.749 8782.811)" fill="url(#linear-gradient)"/>
    <path id="Trazado_266190" data-name="Trazado 266190" d="M41.757,0A41.757,41.757,0,1,1,0,41.757,41.757,41.757,0,0,1,41.757,0Z" transform="translate(629.301 9409.677) rotate(-76.717)" fill="#f9f9f9"/>
    <path id="Trazado_114087" data-name="Trazado 114087" d="M895.5,595.82a44.93,44.93,0,1,1-44.9-44.9A44.895,44.895,0,0,1,895.5,595.82Z" transform="translate(175.557 8782.811)" fill="url(#linear-gradient-5)"/>
    <path id="Trazado_266193" data-name="Trazado 266193" d="M41.757,0A41.757,41.757,0,1,1,0,41.757,41.757,41.757,0,0,1,41.757,0Z" transform="matrix(0.16, -0.987, 0.987, 0.16, 978.256, 9413.16)" fill="#f9f9f9"/>
    <path id="Trazado_114088" data-name="Trazado 114088" d="M895.5,595.82a44.93,44.93,0,1,1-44.9-44.9A44.895,44.895,0,0,1,895.5,595.82Z" transform="translate(175.557 8782.811)" fill="url(#linear-gradient-5)"/>
    <path id="Trazado_266194" data-name="Trazado 266194" d="M41.757,0A41.757,41.757,0,1,1,0,41.757,41.757,41.757,0,0,1,41.757,0Z" transform="matrix(0.16, -0.987, 0.987, 0.16, 978.256, 9413.16)" fill="#f9f9f9"/>
    <g id="Grupo_152500" data-name="Grupo 152500" transform="translate(319.227 9356.068)">
      <g id="Grupo_152499" data-name="Grupo 152499">
        <path id="Trazado_114089" data-name="Trazado 114089" d="M167.373,572.626h12.854v45.125H171.7V580.694h-9.3Z" transform="translate(-162.403 -572.626)" fill="#48a5f0"/>
      </g>
    </g>
    <g id="Grupo_152501" data-name="Grupo 152501" transform="translate(663.906 9355.502)">
      <path id="Trazado_114090" data-name="Trazado 114090" d="M506.931,587.751h-8.375q.338-7.3,4.586-11.489a16.2,16.2,0,0,1,18.161-2.453,12.981,12.981,0,0,1,5.03,5,13.133,13.133,0,0,1,1.887,6.641,19.656,19.656,0,0,1-2.288,8.651q-2.286,4.633-8.363,10.951l-5.064,5.338h16.082v7.945H497.329v-4.11l13.958-14.234a40.752,40.752,0,0,0,6.733-8.236,12.127,12.127,0,0,0,1.672-5.629,5.79,5.79,0,0,0-1.733-4.31,6.1,6.1,0,0,0-4.463-1.7,5.924,5.924,0,0,0-4.6,2.055A8.533,8.533,0,0,0,506.931,587.751Z" transform="translate(-497.329 -572.075)" fill="#a2e6b0"/>
    </g>
    <g id="Grupo_152502" data-name="Grupo 152502" transform="translate(1010.596 9354.934)">
      <path id="Trazado_114091" data-name="Trazado 114091" d="M844.271,583.793h-8.253a13.443,13.443,0,0,1,13.927-12.27,13.086,13.086,0,0,1,9.31,3.528,11.112,11.112,0,0,1,3.758,8.375,9.752,9.752,0,0,1-1.641,5.49,11.727,11.727,0,0,1-4.77,4.019,12.163,12.163,0,0,1,6.426,4.279,11.561,11.561,0,0,1,2.317,7.194,13.6,13.6,0,0,1-4.479,10.292,15.979,15.979,0,0,1-11.412,4.218,14.823,14.823,0,0,1-10.706-3.973q-4.14-3.972-4.539-10.813h8.5a8.546,8.546,0,0,0,2.438,5.2,7.462,7.462,0,0,0,9.755-.231,6.486,6.486,0,0,0-.69-9.908q-2.669-2.116-7.7-2.178v-7.362a13.87,13.87,0,0,0,4.617-.966,5.719,5.719,0,0,0,2.362-1.979,4.711,4.711,0,0,0,.844-2.669,4.014,4.014,0,0,0-1.289-3.052,4.727,4.727,0,0,0-3.374-1.212,5.466,5.466,0,0,0-3.344,1.12A5.6,5.6,0,0,0,844.271,583.793Z" transform="translate(-834.209 -571.523)" fill="#cfbdb0"/>
    </g>
    <path id="Trazado_266188" data-name="Trazado 266188" d="M3.989-4.759V0H1.206V-13.508h5.27a6.1,6.1,0,0,1,2.677.557,4.1,4.1,0,0,1,1.777,1.582,4.411,4.411,0,0,1,.622,2.333,3.878,3.878,0,0,1-1.359,3.131A5.661,5.661,0,0,1,6.429-4.759Zm0-2.254H6.476a2.445,2.445,0,0,0,1.684-.52,1.89,1.89,0,0,0,.58-1.484,2.228,2.228,0,0,0-.584-1.6,2.183,2.183,0,0,0-1.614-.631H3.989Zm14.937-.51a7.284,7.284,0,0,0-.965-.074,1.964,1.964,0,0,0-1.995,1.03V0H13.285V-10.038h2.533l.074,1.2a2.484,2.484,0,0,1,2.236-1.382,2.809,2.809,0,0,1,.835.121ZM24.835.186A4.928,4.928,0,0,1,21.24-1.169a4.815,4.815,0,0,1-1.387-3.609v-.26a6.064,6.064,0,0,1,.584-2.7,4.289,4.289,0,0,1,1.656-1.837,4.648,4.648,0,0,1,2.445-.645,4.166,4.166,0,0,1,3.242,1.3,5.278,5.278,0,0,1,1.183,3.683v1.095H22.572a2.491,2.491,0,0,0,.784,1.577,2.37,2.37,0,0,0,1.656.594A2.894,2.894,0,0,0,27.433-3.1L28.75-1.624A4.025,4.025,0,0,1,27.118-.292,5.357,5.357,0,0,1,24.835.186Zm-.306-8.248a1.675,1.675,0,0,0-1.294.54A2.8,2.8,0,0,0,22.6-5.975h3.729v-.214a2,2,0,0,0-.482-1.384A1.729,1.729,0,0,0,24.529-8.062ZM35.922-2.774a.864.864,0,0,0-.487-.775,5.533,5.533,0,0,0-1.563-.506Q30.291-4.806,30.291-7.1A2.758,2.758,0,0,1,31.4-9.328a4.472,4.472,0,0,1,2.9-.9,4.813,4.813,0,0,1,3.057.9A2.836,2.836,0,0,1,38.5-6.986H35.82a1.3,1.3,0,0,0-.371-.951,1.57,1.57,0,0,0-1.16-.376,1.6,1.6,0,0,0-1.048.306.966.966,0,0,0-.371.779.826.826,0,0,0,.422.719,4.342,4.342,0,0,0,1.424.473,11.632,11.632,0,0,1,1.688.45,2.774,2.774,0,0,1,2.125,2.7A2.618,2.618,0,0,1,37.351-.663a5.083,5.083,0,0,1-3.043.849,5.309,5.309,0,0,1-2.24-.45A3.759,3.759,0,0,1,30.532-1.5a2.867,2.867,0,0,1-.557-1.693h2.542A1.4,1.4,0,0,0,33.046-2.1a2.1,2.1,0,0,0,1.317.38,1.941,1.941,0,0,0,1.164-.292A.909.909,0,0,0,35.922-2.774ZM44.875.186A4.928,4.928,0,0,1,41.28-1.169a4.815,4.815,0,0,1-1.387-3.609v-.26a6.064,6.064,0,0,1,.584-2.7,4.289,4.289,0,0,1,1.656-1.837,4.648,4.648,0,0,1,2.445-.645,4.166,4.166,0,0,1,3.242,1.3A5.278,5.278,0,0,1,49-5.242v1.095H42.611a2.491,2.491,0,0,0,.784,1.577,2.37,2.37,0,0,0,1.656.594A2.894,2.894,0,0,0,47.472-3.1L48.79-1.624A4.025,4.025,0,0,1,47.157-.292,5.357,5.357,0,0,1,44.875.186Zm-.306-8.248a1.675,1.675,0,0,0-1.294.54,2.8,2.8,0,0,0-.635,1.547h3.729v-.214a2,2,0,0,0-.482-1.384A1.729,1.729,0,0,0,44.568-8.062Zm8.424-1.976.083,1.16a3.5,3.5,0,0,1,2.885-1.345,2.913,2.913,0,0,1,2.375.937,4.372,4.372,0,0,1,.8,2.8V0H56.453V-6.42a1.739,1.739,0,0,0-.371-1.239,1.661,1.661,0,0,0-1.234-.385,1.844,1.844,0,0,0-1.7.965V0H50.469V-10.038Zm11.383-2.468v2.468h1.716v1.967H64.375v5.01a1.2,1.2,0,0,0,.213.8,1.072,1.072,0,0,0,.816.241,4.276,4.276,0,0,0,.789-.065V-.056A5.52,5.52,0,0,1,64.57.186a2.56,2.56,0,0,1-2.876-2.848V-8.071H60.229v-1.967h1.466v-2.468ZM73.4,0a2.977,2.977,0,0,1-.269-.9A3.244,3.244,0,0,1,70.6.186a3.564,3.564,0,0,1-2.445-.854,2.745,2.745,0,0,1-.969-2.152A2.837,2.837,0,0,1,68.369-5.27a5.837,5.837,0,0,1,3.419-.863h1.234v-.575a1.654,1.654,0,0,0-.357-1.113,1.405,1.405,0,0,0-1.127-.417,1.6,1.6,0,0,0-1.062.325,1.1,1.1,0,0,0-.385.891H67.409a2.693,2.693,0,0,1,.538-1.614A3.557,3.557,0,0,1,69.469-9.8a5.545,5.545,0,0,1,2.208-.422,4.381,4.381,0,0,1,2.946.932,3.262,3.262,0,0,1,1.09,2.621v4.351a4.8,4.8,0,0,0,.4,2.162V0ZM71.185-1.865a2.309,2.309,0,0,0,1.095-.264,1.737,1.737,0,0,0,.742-.71V-4.564h-1q-2.013,0-2.143,1.392l-.009.158a1.073,1.073,0,0,0,.353.826A1.369,1.369,0,0,0,71.185-1.865Zm10.762-.111a1.759,1.759,0,0,0,1.206-.408,1.43,1.43,0,0,0,.482-1.085h2.514A3.439,3.439,0,0,1,85.593-1.6a3.673,3.673,0,0,1-1.5,1.317,4.689,4.689,0,0,1-2.1.469,4.358,4.358,0,0,1-3.4-1.368,5.415,5.415,0,0,1-1.243-3.781V-5.14a5.353,5.353,0,0,1,1.234-3.7,4.307,4.307,0,0,1,3.386-1.382,4.222,4.222,0,0,1,3.02,1.072A3.794,3.794,0,0,1,86.149-6.3H83.635a1.842,1.842,0,0,0-.482-1.273,1.608,1.608,0,0,0-1.225-.49,1.615,1.615,0,0,0-1.415.683,3.958,3.958,0,0,0-.478,2.216v.279a4.008,4.008,0,0,0,.473,2.23A1.635,1.635,0,0,0,81.947-1.976ZM90.51,0h-2.69V-10.038h2.69ZM87.662-12.636a1.32,1.32,0,0,1,.4-.993,1.516,1.516,0,0,1,1.1-.39,1.52,1.52,0,0,1,1.095.39,1.313,1.313,0,0,1,.408.993,1.316,1.316,0,0,1-.413,1,1.523,1.523,0,0,1-1.09.39,1.523,1.523,0,0,1-1.09-.39A1.316,1.316,0,0,1,87.662-12.636ZM92.3-5.112a5.953,5.953,0,0,1,.575-2.663,4.211,4.211,0,0,1,1.656-1.809,4.831,4.831,0,0,1,2.51-.64,4.571,4.571,0,0,1,3.317,1.243A4.989,4.989,0,0,1,101.791-5.6l.019.687a5.247,5.247,0,0,1-1.29,3.706,4.482,4.482,0,0,1-3.46,1.4,4.5,4.5,0,0,1-3.465-1.392A5.339,5.339,0,0,1,92.3-4.991Zm2.681.19a3.752,3.752,0,0,0,.538,2.188,1.775,1.775,0,0,0,1.54.757,1.779,1.779,0,0,0,1.521-.748,4.106,4.106,0,0,0,.547-2.393,3.715,3.715,0,0,0-.547-2.174,1.779,1.779,0,0,0-1.54-.771A1.75,1.75,0,0,0,95.52-7.3,4.175,4.175,0,0,0,94.981-4.921ZM97.57-14.25h2.922l-2.57,2.876h-2.18Zm8.359,4.212.083,1.16a3.5,3.5,0,0,1,2.885-1.345,2.913,2.913,0,0,1,2.375.937,4.372,4.372,0,0,1,.8,2.8V0h-2.681V-6.42a1.739,1.739,0,0,0-.371-1.239,1.661,1.661,0,0,0-1.234-.385,1.844,1.844,0,0,0-1.7.965V0h-2.681V-10.038Zm12.487,4.945a6.049,6.049,0,0,1,1.053-3.739,3.417,3.417,0,0,1,2.881-1.392,3.074,3.074,0,0,1,2.421,1.095V-14.25h2.69V0H125.04l-.13-1.067A3.155,3.155,0,0,1,122.331.186a3.407,3.407,0,0,1-2.844-1.4A6.244,6.244,0,0,1,118.416-5.093Zm2.681.2a3.963,3.963,0,0,0,.492,2.165,1.6,1.6,0,0,0,1.429.753,1.794,1.794,0,0,0,1.753-1.05V-6.994a1.768,1.768,0,0,0-1.735-1.05Q121.1-8.043,121.1-4.894ZM134.16.186a4.928,4.928,0,0,1-3.595-1.354,4.815,4.815,0,0,1-1.387-3.609v-.26a6.064,6.064,0,0,1,.584-2.7,4.289,4.289,0,0,1,1.656-1.837,4.648,4.648,0,0,1,2.445-.645,4.166,4.166,0,0,1,3.242,1.3,5.278,5.278,0,0,1,1.183,3.683v1.095H131.9a2.491,2.491,0,0,0,.784,1.577,2.37,2.37,0,0,0,1.656.594A2.894,2.894,0,0,0,136.757-3.1l1.317,1.475a4.025,4.025,0,0,1-1.633,1.331A5.357,5.357,0,0,1,134.16.186Zm-.306-8.248a1.675,1.675,0,0,0-1.294.54,2.8,2.8,0,0,0-.635,1.547h3.729v-.214a2,2,0,0,0-.482-1.384A1.729,1.729,0,0,0,133.854-8.062ZM142.639,0h-2.69V-14.25h2.69ZM3.859,23H1.169V12.962h2.69ZM1.011,10.364a1.32,1.32,0,0,1,.4-.993,1.516,1.516,0,0,1,1.1-.39,1.52,1.52,0,0,1,1.095.39,1.417,1.417,0,0,1,0,1.995,1.523,1.523,0,0,1-1.09.39,1.523,1.523,0,0,1-1.09-.39A1.316,1.316,0,0,1,1.011,10.364ZM11.5,20.226a.864.864,0,0,0-.487-.775,5.533,5.533,0,0,0-1.563-.506Q5.873,18.194,5.873,15.9a2.758,2.758,0,0,1,1.109-2.231,4.472,4.472,0,0,1,2.9-.9,4.813,4.813,0,0,1,3.057.9,2.836,2.836,0,0,1,1.146,2.338H11.4a1.3,1.3,0,0,0-.371-.951,1.57,1.57,0,0,0-1.16-.376,1.6,1.6,0,0,0-1.048.306.966.966,0,0,0-.371.779.826.826,0,0,0,.422.719,4.342,4.342,0,0,0,1.424.473,11.631,11.631,0,0,1,1.688.45,2.774,2.774,0,0,1,2.125,2.7,2.618,2.618,0,0,1-1.178,2.222,5.083,5.083,0,0,1-3.043.849,5.309,5.309,0,0,1-2.24-.45A3.759,3.759,0,0,1,6.114,21.5a2.867,2.867,0,0,1-.557-1.693H8.1A1.4,1.4,0,0,0,8.628,20.9a2.1,2.1,0,0,0,1.317.38,1.941,1.941,0,0,0,1.164-.292A.909.909,0,0,0,11.5,20.226Zm3.915-2.338a5.953,5.953,0,0,1,.575-2.663,4.211,4.211,0,0,1,1.656-1.809,4.831,4.831,0,0,1,2.51-.64,4.571,4.571,0,0,1,3.317,1.243A4.989,4.989,0,0,1,24.91,17.4l.019.687a5.247,5.247,0,0,1-1.29,3.706,4.482,4.482,0,0,1-3.46,1.4,4.5,4.5,0,0,1-3.465-1.392,5.339,5.339,0,0,1-1.294-3.785Zm2.681.19a3.752,3.752,0,0,0,.538,2.188,1.933,1.933,0,0,0,3.062.009,4.106,4.106,0,0,0,.547-2.393,3.715,3.715,0,0,0-.547-2.174,1.779,1.779,0,0,0-1.54-.771,1.75,1.75,0,0,0-1.521.767A4.175,4.175,0,0,0,18.1,18.079Zm10.994-5.117.083,1.123a3.528,3.528,0,0,1,2.885-1.308,2.677,2.677,0,0,1,2.663,1.531,3.447,3.447,0,0,1,3.015-1.531,2.994,2.994,0,0,1,2.431.951,4.371,4.371,0,0,1,.8,2.862V23h-2.69V16.6a1.911,1.911,0,0,0-.334-1.248,1.48,1.48,0,0,0-1.178-.394,1.673,1.673,0,0,0-1.67,1.15L35.105,23H32.424V16.608a1.888,1.888,0,0,0-.343-1.262,1.5,1.5,0,0,0-1.169-.39,1.738,1.738,0,0,0-1.651.946V23H26.58V12.962ZM47.648,23.186a4.928,4.928,0,0,1-3.595-1.354,4.815,4.815,0,0,1-1.387-3.609v-.26a6.064,6.064,0,0,1,.584-2.7,4.289,4.289,0,0,1,1.656-1.837,4.648,4.648,0,0,1,2.445-.645,4.166,4.166,0,0,1,3.242,1.3,5.278,5.278,0,0,1,1.183,3.683v1.095H45.385a2.491,2.491,0,0,0,.784,1.577,2.37,2.37,0,0,0,1.656.594A2.894,2.894,0,0,0,50.246,19.9l1.317,1.475a4.025,4.025,0,0,1-1.633,1.331A5.357,5.357,0,0,1,47.648,23.186Zm-.306-8.248a1.675,1.675,0,0,0-1.294.54,2.8,2.8,0,0,0-.635,1.547h3.729v-.214a2,2,0,0,0-.482-1.384A1.729,1.729,0,0,0,47.342,14.938Zm.241-6.188h2.922l-2.57,2.876h-2.18Zm8.925,1.744v2.468h1.716v1.967H56.508v5.01a1.2,1.2,0,0,0,.213.8,1.072,1.072,0,0,0,.816.241,4.276,4.276,0,0,0,.789-.065v2.032a5.52,5.52,0,0,1-1.624.241,2.56,2.56,0,0,1-2.876-2.848V14.929H52.361V12.962h1.466V10.494Zm8.851,4.982a7.284,7.284,0,0,0-.965-.074,1.964,1.964,0,0,0-1.995,1.03V23H59.718V12.962h2.533l.074,1.2a2.484,2.484,0,0,1,2.236-1.382,2.809,2.809,0,0,1,.835.121ZM69.478,23h-2.69V12.962h2.69ZM66.63,10.364a1.32,1.32,0,0,1,.4-.993,1.739,1.739,0,0,1,2.194,0,1.417,1.417,0,0,1,0,1.995,1.72,1.72,0,0,1-2.18,0A1.316,1.316,0,0,1,66.63,10.364Zm9.231,10.66a1.759,1.759,0,0,0,1.206-.408,1.43,1.43,0,0,0,.482-1.085h2.514a3.439,3.439,0,0,1-.557,1.869,3.673,3.673,0,0,1-1.5,1.317,4.689,4.689,0,0,1-2.1.469,4.358,4.358,0,0,1-3.4-1.368,5.415,5.415,0,0,1-1.243-3.781V17.86a5.353,5.353,0,0,1,1.234-3.7,4.307,4.307,0,0,1,3.386-1.382,4.222,4.222,0,0,1,3.02,1.072A3.794,3.794,0,0,1,80.063,16.7H77.549a1.842,1.842,0,0,0-.482-1.273,1.793,1.793,0,0,0-2.639.193,3.958,3.958,0,0,0-.478,2.216v.279a4.008,4.008,0,0,0,.473,2.23A1.635,1.635,0,0,0,75.861,21.024Zm5.316-3.136a5.953,5.953,0,0,1,.575-2.663,4.211,4.211,0,0,1,1.656-1.809,4.831,4.831,0,0,1,2.51-.64,4.571,4.571,0,0,1,3.317,1.243A4.989,4.989,0,0,1,90.667,17.4l.019.687a5.247,5.247,0,0,1-1.29,3.706,5,5,0,0,1-6.926,0,5.339,5.339,0,0,1-1.294-3.785Zm2.681.19a3.752,3.752,0,0,0,.538,2.188,1.933,1.933,0,0,0,3.062.009A4.106,4.106,0,0,0,88,17.883a3.715,3.715,0,0,0-.547-2.174,1.779,1.779,0,0,0-1.54-.771A1.75,1.75,0,0,0,84.4,15.7,4.175,4.175,0,0,0,83.858,18.079Z" transform="translate(396.584 9376.086)" fill="#12263f"/>
    <path id="Trazado_266192" data-name="Trazado 266192" d="M3.989-4.759V0H1.206V-13.508h5.27a6.1,6.1,0,0,1,2.677.557,4.1,4.1,0,0,1,1.777,1.582,4.411,4.411,0,0,1,.622,2.333,3.878,3.878,0,0,1-1.359,3.131A5.661,5.661,0,0,1,6.429-4.759Zm0-2.254H6.476a2.445,2.445,0,0,0,1.684-.52,1.89,1.89,0,0,0,.58-1.484,2.228,2.228,0,0,0-.584-1.6,2.183,2.183,0,0,0-1.614-.631H3.989ZM19,0a2.977,2.977,0,0,1-.269-.9A3.244,3.244,0,0,1,16.2.186a3.564,3.564,0,0,1-2.445-.854,2.745,2.745,0,0,1-.969-2.152A2.837,2.837,0,0,1,13.967-5.27a5.837,5.837,0,0,1,3.419-.863H18.62v-.575a1.654,1.654,0,0,0-.357-1.113,1.405,1.405,0,0,0-1.127-.417,1.6,1.6,0,0,0-1.062.325,1.1,1.1,0,0,0-.385.891H13.007a2.693,2.693,0,0,1,.538-1.614A3.557,3.557,0,0,1,15.066-9.8a5.545,5.545,0,0,1,2.208-.422,4.381,4.381,0,0,1,2.946.932A3.262,3.262,0,0,1,21.31-6.67v4.351a4.8,4.8,0,0,0,.4,2.162V0ZM16.783-1.865a2.309,2.309,0,0,0,1.095-.264,1.737,1.737,0,0,0,.742-.71V-4.564h-1q-2.013,0-2.143,1.392l-.009.158a1.073,1.073,0,0,0,.353.826A1.369,1.369,0,0,0,16.783-1.865Zm12.023-.909a.864.864,0,0,0-.487-.775,5.533,5.533,0,0,0-1.563-.506Q23.175-4.806,23.175-7.1a2.758,2.758,0,0,1,1.109-2.231,4.472,4.472,0,0,1,2.9-.9,4.813,4.813,0,0,1,3.057.9,2.836,2.836,0,0,1,1.146,2.338H28.7a1.3,1.3,0,0,0-.371-.951,1.57,1.57,0,0,0-1.16-.376,1.6,1.6,0,0,0-1.048.306.966.966,0,0,0-.371.779.826.826,0,0,0,.422.719,4.342,4.342,0,0,0,1.424.473,11.632,11.632,0,0,1,1.688.45,2.774,2.774,0,0,1,2.125,2.7A2.618,2.618,0,0,1,30.235-.663a5.083,5.083,0,0,1-3.043.849,5.309,5.309,0,0,1-2.24-.45A3.759,3.759,0,0,1,23.416-1.5a2.867,2.867,0,0,1-.557-1.693H25.4A1.4,1.4,0,0,0,25.93-2.1a2.1,2.1,0,0,0,1.317.38,1.941,1.941,0,0,0,1.164-.292A.909.909,0,0,0,28.806-2.774Zm3.915-2.338A5.953,5.953,0,0,1,33.3-7.774a4.211,4.211,0,0,1,1.656-1.809,4.831,4.831,0,0,1,2.51-.64A4.571,4.571,0,0,1,40.779-8.98,4.989,4.989,0,0,1,42.212-5.6l.019.687a5.247,5.247,0,0,1-1.29,3.706,4.482,4.482,0,0,1-3.46,1.4,4.5,4.5,0,0,1-3.465-1.392,5.339,5.339,0,0,1-1.294-3.785Zm2.681.19a3.752,3.752,0,0,0,.538,2.188,1.775,1.775,0,0,0,1.54.757A1.779,1.779,0,0,0,39-2.724a4.106,4.106,0,0,0,.547-2.393A3.715,3.715,0,0,0,39-7.291a1.779,1.779,0,0,0-1.54-.771A1.75,1.75,0,0,0,35.94-7.3,4.175,4.175,0,0,0,35.4-4.921ZM49.318-2.774a.864.864,0,0,0-.487-.775,5.533,5.533,0,0,0-1.563-.506Q43.687-4.806,43.687-7.1A2.758,2.758,0,0,1,44.8-9.328a4.472,4.472,0,0,1,2.9-.9,4.813,4.813,0,0,1,3.057.9A2.836,2.836,0,0,1,51.9-6.986H49.216a1.3,1.3,0,0,0-.371-.951,1.57,1.57,0,0,0-1.16-.376,1.6,1.6,0,0,0-1.048.306.966.966,0,0,0-.371.779.826.826,0,0,0,.422.719,4.342,4.342,0,0,0,1.424.473,11.632,11.632,0,0,1,1.688.45,2.774,2.774,0,0,1,2.125,2.7A2.618,2.618,0,0,1,50.747-.663,5.083,5.083,0,0,1,47.7.186a5.309,5.309,0,0,1-2.24-.45A3.759,3.759,0,0,1,43.928-1.5a2.867,2.867,0,0,1-.557-1.693h2.542A1.4,1.4,0,0,0,46.442-2.1a2.1,2.1,0,0,0,1.317.38,1.941,1.941,0,0,0,1.164-.292A.909.909,0,0,0,49.318-2.774Zm8.646-2.338a5.953,5.953,0,0,1,.575-2.663A4.211,4.211,0,0,1,60.2-9.583a4.831,4.831,0,0,1,2.51-.64A4.571,4.571,0,0,1,66.022-8.98,4.989,4.989,0,0,1,67.456-5.6l.019.687a5.247,5.247,0,0,1-1.29,3.706,4.482,4.482,0,0,1-3.46,1.4,4.5,4.5,0,0,1-3.465-1.392,5.339,5.339,0,0,1-1.294-3.785Zm2.681.19a3.752,3.752,0,0,0,.538,2.188,1.775,1.775,0,0,0,1.54.757,1.779,1.779,0,0,0,1.521-.748,4.106,4.106,0,0,0,.547-2.393,3.715,3.715,0,0,0-.547-2.174,1.779,1.779,0,0,0-1.54-.771,1.75,1.75,0,0,0-1.521.767A4.175,4.175,0,0,0,60.646-4.921Zm14.12-2.6A7.284,7.284,0,0,0,73.8-7.6a1.964,1.964,0,0,0-1.995,1.03V0H69.125V-10.038h2.533l.074,1.2a2.484,2.484,0,0,1,2.236-1.382,2.809,2.809,0,0,1,.835.121Zm.872,2.431a6.049,6.049,0,0,1,1.053-3.739,3.417,3.417,0,0,1,2.881-1.392,3.074,3.074,0,0,1,2.421,1.095V-14.25h2.69V0H82.262l-.13-1.067A3.155,3.155,0,0,1,79.553.186a3.407,3.407,0,0,1-2.844-1.4A6.244,6.244,0,0,1,75.638-5.093Zm2.681.2a3.963,3.963,0,0,0,.492,2.165,1.6,1.6,0,0,0,1.429.753,1.794,1.794,0,0,0,1.753-1.05V-6.994a1.768,1.768,0,0,0-1.735-1.05Q78.319-8.043,78.319-4.894ZM91.382.186a4.928,4.928,0,0,1-3.595-1.354A4.815,4.815,0,0,1,86.4-4.778v-.26a6.064,6.064,0,0,1,.584-2.7A4.289,4.289,0,0,1,88.64-9.579a4.648,4.648,0,0,1,2.445-.645,4.166,4.166,0,0,1,3.242,1.3A5.278,5.278,0,0,1,95.51-5.242v1.095H89.118A2.491,2.491,0,0,0,89.9-2.57a2.37,2.37,0,0,0,1.656.594A2.894,2.894,0,0,0,93.979-3.1L95.3-1.624A4.025,4.025,0,0,1,93.664-.292,5.357,5.357,0,0,1,91.382.186Zm-.306-8.248a1.675,1.675,0,0,0-1.294.54,2.8,2.8,0,0,0-.635,1.547h3.729v-.214a2,2,0,0,0-.482-1.384A1.729,1.729,0,0,0,91.076-8.062ZM99.5-10.038l.083,1.16a3.5,3.5,0,0,1,2.885-1.345,2.913,2.913,0,0,1,2.375.937,4.372,4.372,0,0,1,.8,2.8V0H102.96V-6.42a1.739,1.739,0,0,0-.371-1.239,1.661,1.661,0,0,0-1.234-.385,1.844,1.844,0,0,0-1.7.965V0H96.976V-10.038ZM113.49,0a2.977,2.977,0,0,1-.269-.9A3.244,3.244,0,0,1,110.688.186a3.564,3.564,0,0,1-2.445-.854,2.745,2.745,0,0,1-.969-2.152,2.837,2.837,0,0,1,1.183-2.449,5.837,5.837,0,0,1,3.419-.863h1.234v-.575a1.654,1.654,0,0,0-.357-1.113,1.405,1.405,0,0,0-1.127-.417,1.6,1.6,0,0,0-1.062.325,1.1,1.1,0,0,0-.385.891H107.5a2.693,2.693,0,0,1,.538-1.614A3.557,3.557,0,0,1,109.556-9.8a5.545,5.545,0,0,1,2.208-.422,4.381,4.381,0,0,1,2.946.932A3.262,3.262,0,0,1,115.8-6.67v4.351a4.8,4.8,0,0,0,.4,2.162V0Zm-2.217-1.865a2.309,2.309,0,0,0,1.095-.264,1.737,1.737,0,0,0,.742-.71V-4.564h-1q-2.013,0-2.143,1.392l-.009.158a1.073,1.073,0,0,0,.353.826A1.369,1.369,0,0,0,111.272-1.865Zm6.169-3.229a6.049,6.049,0,0,1,1.053-3.739,3.417,3.417,0,0,1,2.881-1.392A3.074,3.074,0,0,1,123.8-9.129V-14.25h2.69V0h-2.421l-.13-1.067A3.155,3.155,0,0,1,121.357.186a3.407,3.407,0,0,1-2.844-1.4A6.244,6.244,0,0,1,117.442-5.093Zm2.681.2a3.963,3.963,0,0,0,.492,2.165,1.6,1.6,0,0,0,1.429.753,1.794,1.794,0,0,0,1.753-1.05V-6.994a1.768,1.768,0,0,0-1.735-1.05Q120.123-8.043,120.123-4.894Zm8.025-.218a5.953,5.953,0,0,1,.575-2.663,4.211,4.211,0,0,1,1.656-1.809,4.831,4.831,0,0,1,2.51-.64,4.571,4.571,0,0,1,3.317,1.243A4.989,4.989,0,0,1,137.639-5.6l.019.687a5.247,5.247,0,0,1-1.29,3.706,4.482,4.482,0,0,1-3.46,1.4,4.5,4.5,0,0,1-3.465-1.392,5.339,5.339,0,0,1-1.294-3.785Zm2.681.19a3.752,3.752,0,0,0,.538,2.188,1.775,1.775,0,0,0,1.54.757,1.779,1.779,0,0,0,1.521-.748,4.106,4.106,0,0,0,.547-2.393,3.715,3.715,0,0,0-.547-2.174,1.779,1.779,0,0,0-1.54-.771,1.75,1.75,0,0,0-1.521.767A4.175,4.175,0,0,0,130.829-4.921Zm13.916,2.148a.864.864,0,0,0-.487-.775,5.533,5.533,0,0,0-1.563-.506q-3.581-.751-3.581-3.043a2.758,2.758,0,0,1,1.109-2.231,4.472,4.472,0,0,1,2.9-.9,4.813,4.813,0,0,1,3.057.9,2.836,2.836,0,0,1,1.146,2.338h-2.681a1.3,1.3,0,0,0-.371-.951,1.57,1.57,0,0,0-1.16-.376,1.6,1.6,0,0,0-1.048.306.966.966,0,0,0-.371.779.826.826,0,0,0,.422.719,4.343,4.343,0,0,0,1.424.473,11.632,11.632,0,0,1,1.688.45,2.774,2.774,0,0,1,2.125,2.7,2.618,2.618,0,0,1-1.178,2.222,5.083,5.083,0,0,1-3.043.849,5.309,5.309,0,0,1-2.24-.45A3.759,3.759,0,0,1,139.355-1.5a2.867,2.867,0,0,1-.557-1.693h2.542a1.4,1.4,0,0,0,.529,1.095,2.1,2.1,0,0,0,1.317.38,1.941,1.941,0,0,0,1.164-.292A.909.909,0,0,0,144.745-2.774ZM10.066,18.074a6.02,6.02,0,0,1-1.053,3.716,3.376,3.376,0,0,1-2.844,1.4,3.127,3.127,0,0,1-2.458-1.058v4.731H1.03v-13.9H3.516l.093.983a3.151,3.151,0,0,1,2.542-1.169,3.4,3.4,0,0,1,2.885,1.373,6.183,6.183,0,0,1,1.03,3.785Zm-2.681-.195a3.951,3.951,0,0,0-.5-2.162,1.617,1.617,0,0,0-1.443-.761,1.756,1.756,0,0,0-1.735.965v4.11a1.786,1.786,0,0,0,1.753.993Q7.385,21.024,7.385,17.879ZM17.543,23a2.977,2.977,0,0,1-.269-.9,3.244,3.244,0,0,1-2.533,1.085,3.564,3.564,0,0,1-2.445-.854,2.745,2.745,0,0,1-.969-2.152A2.837,2.837,0,0,1,12.51,17.73a5.837,5.837,0,0,1,3.419-.863h1.234v-.575a1.654,1.654,0,0,0-.357-1.113,1.405,1.405,0,0,0-1.127-.417,1.6,1.6,0,0,0-1.062.325,1.1,1.1,0,0,0-.385.891H11.55a2.693,2.693,0,0,1,.538-1.614A3.557,3.557,0,0,1,13.61,13.2a5.545,5.545,0,0,1,2.208-.422,4.381,4.381,0,0,1,2.946.932,3.262,3.262,0,0,1,1.09,2.621v4.351a4.8,4.8,0,0,0,.4,2.162V23Zm-2.217-1.865a2.309,2.309,0,0,0,1.095-.264,1.737,1.737,0,0,0,.742-.71V18.436h-1q-2.013,0-2.143,1.392l-.009.158a1.073,1.073,0,0,0,.353.826A1.369,1.369,0,0,0,15.326,21.135Zm12.228-5.659a7.284,7.284,0,0,0-.965-.074,1.964,1.964,0,0,0-1.995,1.03V23H21.913V12.962h2.533l.074,1.2a2.484,2.484,0,0,1,2.236-1.382,2.809,2.809,0,0,1,.835.121ZM34.382,23a2.977,2.977,0,0,1-.269-.9,3.244,3.244,0,0,1-2.533,1.085,3.564,3.564,0,0,1-2.445-.854,2.745,2.745,0,0,1-.969-2.152,2.837,2.837,0,0,1,1.183-2.449,5.837,5.837,0,0,1,3.419-.863H34v-.575a1.654,1.654,0,0,0-.357-1.113,1.405,1.405,0,0,0-1.127-.417,1.6,1.6,0,0,0-1.062.325,1.1,1.1,0,0,0-.385.891H28.389a2.693,2.693,0,0,1,.538-1.614A3.557,3.557,0,0,1,30.448,13.2a5.545,5.545,0,0,1,2.208-.422,4.381,4.381,0,0,1,2.946.932,3.262,3.262,0,0,1,1.09,2.621v4.351a4.8,4.8,0,0,0,.4,2.162V23Zm-2.217-1.865a2.309,2.309,0,0,0,1.095-.264,1.737,1.737,0,0,0,.742-.71V18.436H33q-2.013,0-2.143,1.392l-.009.158a1.073,1.073,0,0,0,.353.826A1.369,1.369,0,0,0,32.165,21.135ZM48.1,23.186a4.928,4.928,0,0,1-3.595-1.354,4.815,4.815,0,0,1-1.387-3.609v-.26a6.064,6.064,0,0,1,.584-2.7,4.289,4.289,0,0,1,1.656-1.837,4.648,4.648,0,0,1,2.445-.645,4.166,4.166,0,0,1,3.242,1.3,5.278,5.278,0,0,1,1.183,3.683v1.095H45.839a2.491,2.491,0,0,0,.784,1.577,2.37,2.37,0,0,0,1.656.594A2.894,2.894,0,0,0,50.7,19.9l1.317,1.475a4.025,4.025,0,0,1-1.633,1.331A5.357,5.357,0,0,1,48.1,23.186ZM47.8,14.938a1.675,1.675,0,0,0-1.294.54,2.8,2.8,0,0,0-.635,1.547H49.6v-.214a2,2,0,0,0-.482-1.384A1.729,1.729,0,0,0,47.8,14.938ZM56.583,23h-2.69V8.75h2.69Zm11.56.186a4.928,4.928,0,0,1-3.595-1.354,4.815,4.815,0,0,1-1.387-3.609v-.26a6.064,6.064,0,0,1,.584-2.7A4.289,4.289,0,0,1,65.4,13.421a4.648,4.648,0,0,1,2.445-.645,4.166,4.166,0,0,1,3.242,1.3,5.278,5.278,0,0,1,1.183,3.683v1.095H65.878a2.491,2.491,0,0,0,.784,1.577,2.37,2.37,0,0,0,1.656.594A2.894,2.894,0,0,0,70.74,19.9l1.317,1.475a4.025,4.025,0,0,1-1.633,1.331A5.357,5.357,0,0,1,68.142,23.186Zm-.306-8.248a1.675,1.675,0,0,0-1.294.54,2.8,2.8,0,0,0-.635,1.547h3.729v-.214a2,2,0,0,0-.482-1.384A1.729,1.729,0,0,0,67.836,14.938Zm8.424-1.976.083,1.16a3.5,3.5,0,0,1,2.885-1.345,2.913,2.913,0,0,1,2.375.937,4.372,4.372,0,0,1,.8,2.8V23H79.72V16.58a1.739,1.739,0,0,0-.371-1.239,1.661,1.661,0,0,0-1.234-.385,1.844,1.844,0,0,0-1.7.965V23H73.736V12.962Zm13.61,7.264a.864.864,0,0,0-.487-.775,5.533,5.533,0,0,0-1.563-.506q-3.581-.751-3.581-3.043a2.758,2.758,0,0,1,1.109-2.231,4.472,4.472,0,0,1,2.9-.9,4.813,4.813,0,0,1,3.057.9,2.836,2.836,0,0,1,1.146,2.338H89.768a1.3,1.3,0,0,0-.371-.951,1.57,1.57,0,0,0-1.16-.376,1.6,1.6,0,0,0-1.048.306.966.966,0,0,0-.371.779.826.826,0,0,0,.422.719,4.342,4.342,0,0,0,1.424.473,11.631,11.631,0,0,1,1.688.45,2.774,2.774,0,0,1,2.125,2.7A2.618,2.618,0,0,1,91.3,22.337a5.083,5.083,0,0,1-3.043.849,5.309,5.309,0,0,1-2.24-.45A3.759,3.759,0,0,1,84.479,21.5a2.867,2.867,0,0,1-.557-1.693h2.542a1.4,1.4,0,0,0,.529,1.095,2.1,2.1,0,0,0,1.317.38,1.941,1.941,0,0,0,1.164-.292A.909.909,0,0,0,89.87,20.226ZM100.019,23a2.977,2.977,0,0,1-.269-.9,3.244,3.244,0,0,1-2.533,1.085,3.564,3.564,0,0,1-2.445-.854A2.745,2.745,0,0,1,93.8,20.18a2.837,2.837,0,0,1,1.183-2.449,5.837,5.837,0,0,1,3.419-.863h1.234v-.575a1.654,1.654,0,0,0-.357-1.113,1.405,1.405,0,0,0-1.127-.417,1.6,1.6,0,0,0-1.062.325,1.1,1.1,0,0,0-.385.891H94.026a2.693,2.693,0,0,1,.538-1.614A3.557,3.557,0,0,1,96.085,13.2a5.545,5.545,0,0,1,2.208-.422,4.381,4.381,0,0,1,2.946.932,3.262,3.262,0,0,1,1.09,2.621v4.351a4.8,4.8,0,0,0,.4,2.162V23ZM97.8,21.135a2.309,2.309,0,0,0,1.095-.264,1.737,1.737,0,0,0,.742-.71V18.436h-1q-2.013,0-2.143,1.392l-.009.158a1.073,1.073,0,0,0,.353.826A1.369,1.369,0,0,0,97.8,21.135Zm9.1-8.173.083,1.123a3.528,3.528,0,0,1,2.885-1.308,2.677,2.677,0,0,1,2.663,1.531,3.447,3.447,0,0,1,3.015-1.531,2.994,2.994,0,0,1,2.431.951,4.371,4.371,0,0,1,.8,2.862V23h-2.69V16.6a1.911,1.911,0,0,0-.334-1.248,1.48,1.48,0,0,0-1.178-.394,1.673,1.673,0,0,0-1.67,1.15L112.915,23h-2.681V16.608a1.888,1.888,0,0,0-.343-1.262,1.5,1.5,0,0,0-1.169-.39,1.738,1.738,0,0,0-1.651.946V23h-2.681V12.962Zm22.98,5.112a6.078,6.078,0,0,1-1.03,3.762,3.411,3.411,0,0,1-2.876,1.35,3.134,3.134,0,0,1-2.607-1.252L123.25,23h-2.412V8.75h2.681v5.112a3.054,3.054,0,0,1,2.44-1.085,3.439,3.439,0,0,1,2.881,1.35,6.087,6.087,0,0,1,1.044,3.8Zm-2.681-.195a3.993,3.993,0,0,0-.482-2.222,1.631,1.631,0,0,0-1.438-.7A1.769,1.769,0,0,0,123.519,16v3.961a1.793,1.793,0,0,0,1.781,1.058,1.655,1.655,0,0,0,1.707-1.28A6.6,6.6,0,0,0,127.2,17.879ZM134.364,23h-2.69V8.75h2.69Zm6.828.186a4.928,4.928,0,0,1-3.595-1.354,4.815,4.815,0,0,1-1.387-3.609v-.26a6.064,6.064,0,0,1,.584-2.7,4.289,4.289,0,0,1,1.656-1.837,4.648,4.648,0,0,1,2.445-.645,4.166,4.166,0,0,1,3.242,1.3,5.278,5.278,0,0,1,1.183,3.683v1.095h-6.392a2.491,2.491,0,0,0,.784,1.577,2.37,2.37,0,0,0,1.656.594A2.894,2.894,0,0,0,143.79,19.9l1.317,1.475a4.025,4.025,0,0,1-1.633,1.331A5.357,5.357,0,0,1,141.192,23.186Zm-.306-8.248a1.675,1.675,0,0,0-1.294.54,2.8,2.8,0,0,0-.635,1.547h3.729v-.214a2,2,0,0,0-.482-1.384A1.729,1.729,0,0,0,140.886,14.938Z" transform="translate(744.426 9376.086)" fill="#12263f"/>
    <path id="Trazado_266196" data-name="Trazado 266196" d="M8.832-2.783H3.952L3.024,0H.065L5.093-13.508H7.672L12.729,0H9.769ZM4.7-5.038H8.081l-1.7-5.056Zm11.133-5,.083,1.16a3.5,3.5,0,0,1,2.885-1.345,2.913,2.913,0,0,1,2.375.937,4.372,4.372,0,0,1,.8,2.8V0H19.3V-6.42a1.739,1.739,0,0,0-.371-1.239,1.661,1.661,0,0,0-1.234-.385,1.844,1.844,0,0,0-1.7.965V0H13.313V-10.038Zm7.756,4.926a5.953,5.953,0,0,1,.575-2.663,4.211,4.211,0,0,1,1.656-1.809,4.831,4.831,0,0,1,2.51-.64A4.571,4.571,0,0,1,31.65-8.98,4.989,4.989,0,0,1,33.083-5.6l.019.687a5.247,5.247,0,0,1-1.29,3.706,4.482,4.482,0,0,1-3.46,1.4,4.5,4.5,0,0,1-3.465-1.392,5.339,5.339,0,0,1-1.294-3.785Zm2.681.19a3.752,3.752,0,0,0,.538,2.188,1.775,1.775,0,0,0,1.54.757,1.779,1.779,0,0,0,1.521-.748,4.106,4.106,0,0,0,.547-2.393,3.715,3.715,0,0,0-.547-2.174,1.779,1.779,0,0,0-1.54-.771,1.75,1.75,0,0,0-1.521.767A4.175,4.175,0,0,0,26.273-4.921Zm11.689-7.584v2.468h1.716v1.967H37.963v5.01a1.2,1.2,0,0,0,.213.8,1.072,1.072,0,0,0,.816.241,4.276,4.276,0,0,0,.789-.065V-.056a5.52,5.52,0,0,1-1.624.241,2.56,2.56,0,0,1-2.876-2.848V-8.071H33.816v-1.967h1.466v-2.468ZM46.99,0a2.977,2.977,0,0,1-.269-.9A3.244,3.244,0,0,1,44.188.186a3.564,3.564,0,0,1-2.445-.854,2.745,2.745,0,0,1-.969-2.152A2.837,2.837,0,0,1,41.957-5.27a5.837,5.837,0,0,1,3.419-.863h1.234v-.575a1.654,1.654,0,0,0-.357-1.113,1.405,1.405,0,0,0-1.127-.417,1.6,1.6,0,0,0-1.062.325,1.1,1.1,0,0,0-.385.891H41a2.693,2.693,0,0,1,.538-1.614A3.557,3.557,0,0,1,43.056-9.8a5.545,5.545,0,0,1,2.208-.422,4.381,4.381,0,0,1,2.946.932A3.262,3.262,0,0,1,49.3-6.67v4.351a4.8,4.8,0,0,0,.4,2.162V0ZM44.772-1.865a2.309,2.309,0,0,0,1.095-.264,1.737,1.737,0,0,0,.742-.71V-4.564h-1q-2.013,0-2.143,1.392l-.009.158a1.073,1.073,0,0,0,.353.826A1.369,1.369,0,0,0,44.772-1.865Zm10.762-.111a1.759,1.759,0,0,0,1.206-.408,1.43,1.43,0,0,0,.482-1.085h2.514A3.439,3.439,0,0,1,59.18-1.6a3.673,3.673,0,0,1-1.5,1.317,4.689,4.689,0,0,1-2.1.469,4.358,4.358,0,0,1-3.4-1.368,5.415,5.415,0,0,1-1.243-3.781V-5.14a5.353,5.353,0,0,1,1.234-3.7,4.307,4.307,0,0,1,3.386-1.382,4.222,4.222,0,0,1,3.02,1.072A3.794,3.794,0,0,1,59.737-6.3H57.223a1.842,1.842,0,0,0-.482-1.273,1.608,1.608,0,0,0-1.225-.49,1.615,1.615,0,0,0-1.415.683,3.958,3.958,0,0,0-.478,2.216v.279a4.008,4.008,0,0,0,.473,2.23A1.635,1.635,0,0,0,55.534-1.976ZM64.1,0h-2.69V-10.038H64.1ZM61.249-12.636a1.32,1.32,0,0,1,.4-.993,1.516,1.516,0,0,1,1.1-.39,1.52,1.52,0,0,1,1.095.39,1.313,1.313,0,0,1,.408.993,1.316,1.316,0,0,1-.413,1,1.523,1.523,0,0,1-1.09.39,1.523,1.523,0,0,1-1.09-.39A1.316,1.316,0,0,1,61.249-12.636Zm4.639,7.524a5.953,5.953,0,0,1,.575-2.663,4.211,4.211,0,0,1,1.656-1.809,4.831,4.831,0,0,1,2.51-.64A4.571,4.571,0,0,1,73.945-8.98,4.989,4.989,0,0,1,75.378-5.6l.019.687a5.247,5.247,0,0,1-1.29,3.706,4.482,4.482,0,0,1-3.46,1.4,4.5,4.5,0,0,1-3.465-1.392,5.339,5.339,0,0,1-1.294-3.785Zm2.681.19a3.752,3.752,0,0,0,.538,2.188,1.775,1.775,0,0,0,1.54.757,1.779,1.779,0,0,0,1.521-.748,4.106,4.106,0,0,0,.547-2.393,3.715,3.715,0,0,0-.547-2.174,1.779,1.779,0,0,0-1.54-.771,1.75,1.75,0,0,0-1.521.767A4.175,4.175,0,0,0,68.569-4.921Zm10.947-5.117.083,1.16a3.5,3.5,0,0,1,2.885-1.345,2.913,2.913,0,0,1,2.375.937,4.372,4.372,0,0,1,.8,2.8V0H82.977V-6.42a1.739,1.739,0,0,0-.371-1.239,1.661,1.661,0,0,0-1.234-.385,1.844,1.844,0,0,0-1.7.965V0H76.993V-10.038ZM92.31.186a4.928,4.928,0,0,1-3.595-1.354,4.815,4.815,0,0,1-1.387-3.609v-.26a6.064,6.064,0,0,1,.584-2.7,4.289,4.289,0,0,1,1.656-1.837,4.648,4.648,0,0,1,2.445-.645,4.166,4.166,0,0,1,3.242,1.3,5.278,5.278,0,0,1,1.183,3.683v1.095H90.046A2.491,2.491,0,0,0,90.83-2.57a2.37,2.37,0,0,0,1.656.594A2.894,2.894,0,0,0,94.907-3.1l1.317,1.475A4.025,4.025,0,0,1,94.592-.292,5.357,5.357,0,0,1,92.31.186ZM92-8.062a1.675,1.675,0,0,0-1.294.54,2.8,2.8,0,0,0-.635,1.547H93.8v-.214a2,2,0,0,0-.482-1.384A1.729,1.729,0,0,0,92-8.062ZM103.4-2.774a.864.864,0,0,0-.487-.775,5.533,5.533,0,0,0-1.563-.506Q97.765-4.806,97.765-7.1a2.758,2.758,0,0,1,1.109-2.231,4.472,4.472,0,0,1,2.9-.9,4.813,4.813,0,0,1,3.057.9,2.836,2.836,0,0,1,1.146,2.338h-2.681a1.3,1.3,0,0,0-.371-.951,1.57,1.57,0,0,0-1.16-.376,1.6,1.6,0,0,0-1.048.306.966.966,0,0,0-.371.779.826.826,0,0,0,.422.719,4.342,4.342,0,0,0,1.424.473,11.632,11.632,0,0,1,1.688.45A2.774,2.774,0,0,1,106-2.885a2.618,2.618,0,0,1-1.178,2.222,5.083,5.083,0,0,1-3.043.849,5.309,5.309,0,0,1-2.24-.45A3.759,3.759,0,0,1,98.006-1.5a2.867,2.867,0,0,1-.557-1.693h2.542A1.4,1.4,0,0,0,100.52-2.1a2.1,2.1,0,0,0,1.317.38A1.941,1.941,0,0,0,103-2.009.909.909,0,0,0,103.4-2.774Zm12.812-1.021,1.855-6.244h2.876L116.9,1.559l-.223.529a3.06,3.06,0,0,1-2.969,1.967,4.219,4.219,0,0,1-1.187-.176V1.846l.408.009a2.206,2.206,0,0,0,1.136-.232,1.524,1.524,0,0,0,.589-.77l.315-.826-3.516-10.066h2.885ZM132.545,0a2.977,2.977,0,0,1-.269-.9A3.244,3.244,0,0,1,129.744.186,3.564,3.564,0,0,1,127.3-.668a2.745,2.745,0,0,1-.969-2.152,2.837,2.837,0,0,1,1.183-2.449,5.837,5.837,0,0,1,3.419-.863h1.234v-.575a1.654,1.654,0,0,0-.357-1.113,1.405,1.405,0,0,0-1.127-.417,1.6,1.6,0,0,0-1.062.325,1.1,1.1,0,0,0-.385.891h-2.681a2.693,2.693,0,0,1,.538-1.614A3.557,3.557,0,0,1,128.612-9.8a5.545,5.545,0,0,1,2.208-.422,4.381,4.381,0,0,1,2.946.932,3.262,3.262,0,0,1,1.09,2.621v4.351a4.8,4.8,0,0,0,.4,2.162V0Zm-2.217-1.865a2.309,2.309,0,0,0,1.095-.264,1.737,1.737,0,0,0,.742-.71V-4.564h-1q-2.013,0-2.143,1.392l-.009.158a1.073,1.073,0,0,0,.353.826A1.369,1.369,0,0,0,130.328-1.865Zm10.335-1.93,1.855-6.244h2.876l-4.036,11.6-.223.529a3.06,3.06,0,0,1-2.969,1.967,4.219,4.219,0,0,1-1.187-.176V1.846l.408.009a2.206,2.206,0,0,0,1.136-.232,1.524,1.524,0,0,0,.589-.77l.315-.826-3.516-10.066H138.8Zm11.8,2.774A3.362,3.362,0,0,1,149.718.186a3.171,3.171,0,0,1-2.463-.928,3.96,3.96,0,0,1-.867-2.718v-6.578h2.681v6.492q0,1.57,1.429,1.57a1.936,1.936,0,0,0,1.874-.947v-7.115h2.69V0h-2.523Zm4.2-4.073a6.049,6.049,0,0,1,1.053-3.739,3.417,3.417,0,0,1,2.881-1.392,3.074,3.074,0,0,1,2.421,1.095V-14.25h2.69V0h-2.421l-.13-1.067A3.155,3.155,0,0,1,160.582.186a3.407,3.407,0,0,1-2.844-1.4A6.244,6.244,0,0,1,156.667-5.093Zm2.681.2a3.963,3.963,0,0,0,.492,2.165,1.6,1.6,0,0,0,1.429.753,1.794,1.794,0,0,0,1.753-1.05V-6.994a1.768,1.768,0,0,0-1.735-1.05Q159.348-8.043,159.348-4.894ZM173.607,0a2.977,2.977,0,0,1-.269-.9A3.244,3.244,0,0,1,170.805.186a3.564,3.564,0,0,1-2.445-.854,2.745,2.745,0,0,1-.969-2.152,2.837,2.837,0,0,1,1.183-2.449,5.837,5.837,0,0,1,3.419-.863h1.234v-.575a1.654,1.654,0,0,0-.357-1.113,1.405,1.405,0,0,0-1.127-.417,1.6,1.6,0,0,0-1.062.325,1.1,1.1,0,0,0-.385.891h-2.681a2.693,2.693,0,0,1,.538-1.614A3.557,3.557,0,0,1,169.673-9.8a5.545,5.545,0,0,1,2.208-.422,4.381,4.381,0,0,1,2.946.932,3.262,3.262,0,0,1,1.09,2.621v4.351a4.8,4.8,0,0,0,.4,2.162V0ZM171.39-1.865a2.309,2.309,0,0,0,1.095-.264,1.737,1.737,0,0,0,.742-.71V-4.564h-1q-2.013,0-2.143,1.392l-.009.158a1.073,1.073,0,0,0,.353.826A1.369,1.369,0,0,0,171.39-1.865Zm12.023-.909a.864.864,0,0,0-.487-.775,5.533,5.533,0,0,0-1.563-.506q-3.581-.751-3.581-3.043a2.758,2.758,0,0,1,1.109-2.231,4.472,4.472,0,0,1,2.9-.9,4.813,4.813,0,0,1,3.057.9,2.836,2.836,0,0,1,1.146,2.338h-2.681a1.3,1.3,0,0,0-.371-.951,1.57,1.57,0,0,0-1.16-.376,1.6,1.6,0,0,0-1.048.306.966.966,0,0,0-.371.779.826.826,0,0,0,.422.719,4.343,4.343,0,0,0,1.424.473,11.632,11.632,0,0,1,1.688.45,2.774,2.774,0,0,1,2.125,2.7,2.618,2.618,0,0,1-1.178,2.222A5.083,5.083,0,0,1,181.8.186a5.309,5.309,0,0,1-2.24-.45A3.759,3.759,0,0,1,178.023-1.5a2.867,2.867,0,0,1-.557-1.693h2.542a1.4,1.4,0,0,0,.529,1.095,2.1,2.1,0,0,0,1.317.38,1.941,1.941,0,0,0,1.164-.292A.909.909,0,0,0,183.413-2.774ZM6.847,23a2.977,2.977,0,0,1-.269-.9,3.244,3.244,0,0,1-2.533,1.085A3.564,3.564,0,0,1,1.6,22.332,2.745,2.745,0,0,1,.631,20.18,2.837,2.837,0,0,1,1.814,17.73a5.837,5.837,0,0,1,3.419-.863H6.466v-.575a1.654,1.654,0,0,0-.357-1.113,1.405,1.405,0,0,0-1.127-.417,1.6,1.6,0,0,0-1.062.325,1.1,1.1,0,0,0-.385.891H.854a2.693,2.693,0,0,1,.538-1.614A3.557,3.557,0,0,1,2.913,13.2a5.545,5.545,0,0,1,2.208-.422,4.381,4.381,0,0,1,2.946.932,3.262,3.262,0,0,1,1.09,2.621v4.351a4.8,4.8,0,0,0,.4,2.162V23ZM4.629,21.135a2.309,2.309,0,0,0,1.095-.264,1.737,1.737,0,0,0,.742-.71V18.436h-1q-2.013,0-2.143,1.392l-.009.158a1.073,1.073,0,0,0,.353.826A1.369,1.369,0,0,0,4.629,21.135ZM10.8,17.907a6.049,6.049,0,0,1,1.053-3.739,3.417,3.417,0,0,1,2.881-1.392,3.074,3.074,0,0,1,2.421,1.095V8.75h2.69V23H17.423l-.13-1.067a3.155,3.155,0,0,1-2.579,1.252,3.407,3.407,0,0,1-2.844-1.4A6.244,6.244,0,0,1,10.8,17.907Zm2.681.2a3.963,3.963,0,0,0,.492,2.165,1.6,1.6,0,0,0,1.429.753,1.794,1.794,0,0,0,1.753-1.05V16.006a1.768,1.768,0,0,0-1.735-1.05Q13.48,14.957,13.48,18.106ZM24.752,23h-2.69V12.962h2.69ZM21.9,10.364a1.32,1.32,0,0,1,.4-.993,1.739,1.739,0,0,1,2.194,0,1.417,1.417,0,0,1,0,1.995,1.72,1.72,0,0,1-2.18,0A1.316,1.316,0,0,1,21.9,10.364Zm9.231,10.66a1.759,1.759,0,0,0,1.206-.408,1.43,1.43,0,0,0,.482-1.085h2.514a3.439,3.439,0,0,1-.557,1.869,3.673,3.673,0,0,1-1.5,1.317,4.689,4.689,0,0,1-2.1.469,4.358,4.358,0,0,1-3.4-1.368,5.415,5.415,0,0,1-1.243-3.781V17.86a5.353,5.353,0,0,1,1.234-3.7,4.307,4.307,0,0,1,3.386-1.382,4.222,4.222,0,0,1,3.02,1.072A3.794,3.794,0,0,1,35.337,16.7H32.823a1.842,1.842,0,0,0-.482-1.273,1.793,1.793,0,0,0-2.639.193,3.958,3.958,0,0,0-.478,2.216v.279a4.008,4.008,0,0,0,.473,2.23A1.635,1.635,0,0,0,31.135,21.024ZM39.7,23h-2.69V12.962H39.7ZM36.85,10.364a1.32,1.32,0,0,1,.4-.993,1.739,1.739,0,0,1,2.194,0,1.417,1.417,0,0,1,0,1.995,1.72,1.72,0,0,1-2.18,0A1.316,1.316,0,0,1,36.85,10.364Zm4.639,7.524a5.953,5.953,0,0,1,.575-2.663,4.211,4.211,0,0,1,1.656-1.809,4.831,4.831,0,0,1,2.51-.64,4.571,4.571,0,0,1,3.317,1.243A4.989,4.989,0,0,1,50.979,17.4l.019.687a5.247,5.247,0,0,1-1.29,3.706,5,5,0,0,1-6.926,0,5.339,5.339,0,0,1-1.294-3.785Zm2.681.19a3.752,3.752,0,0,0,.538,2.188,1.933,1.933,0,0,0,3.062.009,4.106,4.106,0,0,0,.547-2.393,3.715,3.715,0,0,0-.547-2.174,1.779,1.779,0,0,0-1.54-.771,1.75,1.75,0,0,0-1.521.767A4.175,4.175,0,0,0,44.169,18.079Zm10.947-5.117.083,1.16a3.5,3.5,0,0,1,2.885-1.345,2.913,2.913,0,0,1,2.375.937,4.372,4.372,0,0,1,.8,2.8V23H58.577V16.58a1.739,1.739,0,0,0-.371-1.239,1.661,1.661,0,0,0-1.234-.385,1.844,1.844,0,0,0-1.7.965V23H52.593V12.962ZM69.107,23a2.977,2.977,0,0,1-.269-.9,3.244,3.244,0,0,1-2.533,1.085,3.564,3.564,0,0,1-2.445-.854,2.745,2.745,0,0,1-.969-2.152,2.837,2.837,0,0,1,1.183-2.449,5.837,5.837,0,0,1,3.419-.863h1.234v-.575a1.654,1.654,0,0,0-.357-1.113,1.405,1.405,0,0,0-1.127-.417,1.6,1.6,0,0,0-1.062.325,1.1,1.1,0,0,0-.385.891H63.114a2.693,2.693,0,0,1,.538-1.614A3.557,3.557,0,0,1,65.173,13.2a5.545,5.545,0,0,1,2.208-.422,4.381,4.381,0,0,1,2.946.932,3.262,3.262,0,0,1,1.09,2.621v4.351a4.8,4.8,0,0,0,.4,2.162V23ZM66.89,21.135a2.309,2.309,0,0,0,1.095-.264,1.737,1.737,0,0,0,.742-.71V18.436h-1q-2.013,0-2.143,1.392l-.009.158a1.073,1.073,0,0,0,.353.826A1.369,1.369,0,0,0,66.89,21.135ZM76.306,23h-2.69V8.75h2.69Zm6.828.186a4.928,4.928,0,0,1-3.595-1.354,4.815,4.815,0,0,1-1.387-3.609v-.26a6.064,6.064,0,0,1,.584-2.7,4.289,4.289,0,0,1,1.656-1.837,4.648,4.648,0,0,1,2.445-.645,4.166,4.166,0,0,1,3.242,1.3,5.278,5.278,0,0,1,1.183,3.683v1.095H80.871a2.491,2.491,0,0,0,.784,1.577,2.37,2.37,0,0,0,1.656.594A2.894,2.894,0,0,0,85.732,19.9l1.317,1.475a4.025,4.025,0,0,1-1.633,1.331A5.357,5.357,0,0,1,83.134,23.186Zm-.306-8.248a1.675,1.675,0,0,0-1.294.54,2.8,2.8,0,0,0-.635,1.547h3.729v-.214a2,2,0,0,0-.482-1.384A1.729,1.729,0,0,0,82.828,14.938Zm11.393,5.288a.864.864,0,0,0-.487-.775,5.533,5.533,0,0,0-1.563-.506q-3.581-.751-3.581-3.043A2.758,2.758,0,0,1,89.7,13.672a4.472,4.472,0,0,1,2.9-.9,4.813,4.813,0,0,1,3.057.9A2.836,2.836,0,0,1,96.8,16.014H94.119a1.3,1.3,0,0,0-.371-.951,1.57,1.57,0,0,0-1.16-.376,1.6,1.6,0,0,0-1.048.306.966.966,0,0,0-.371.779.826.826,0,0,0,.422.719,4.342,4.342,0,0,0,1.424.473,11.631,11.631,0,0,1,1.688.45,2.774,2.774,0,0,1,2.125,2.7,2.618,2.618,0,0,1-1.178,2.222,5.083,5.083,0,0,1-3.043.849,5.309,5.309,0,0,1-2.24-.45A3.759,3.759,0,0,1,88.831,21.5a2.867,2.867,0,0,1-.557-1.693h2.542a1.4,1.4,0,0,0,.529,1.095,2.1,2.1,0,0,0,1.317.38,1.941,1.941,0,0,0,1.164-.292A.909.909,0,0,0,94.221,20.226Zm18.1-2.152a6.02,6.02,0,0,1-1.053,3.716,3.376,3.376,0,0,1-2.844,1.4,3.127,3.127,0,0,1-2.458-1.058v4.731h-2.681v-13.9h2.486l.093.983a3.151,3.151,0,0,1,2.542-1.169,3.4,3.4,0,0,1,2.885,1.373,6.183,6.183,0,0,1,1.03,3.785Zm-2.681-.195a3.951,3.951,0,0,0-.5-2.162,1.617,1.617,0,0,0-1.443-.761,1.756,1.756,0,0,0-1.735.965v4.11a1.786,1.786,0,0,0,1.753.993Q109.64,21.024,109.64,17.879ZM119.8,23a2.977,2.977,0,0,1-.269-.9A3.244,3.244,0,0,1,117,23.186a3.564,3.564,0,0,1-2.445-.854,2.745,2.745,0,0,1-.969-2.152,2.837,2.837,0,0,1,1.183-2.449,5.837,5.837,0,0,1,3.419-.863h1.234v-.575a1.654,1.654,0,0,0-.357-1.113,1.405,1.405,0,0,0-1.127-.417,1.6,1.6,0,0,0-1.062.325,1.1,1.1,0,0,0-.385.891h-2.681a2.693,2.693,0,0,1,.538-1.614,3.557,3.557,0,0,1,1.521-1.164,5.545,5.545,0,0,1,2.208-.422,4.381,4.381,0,0,1,2.946.932,3.262,3.262,0,0,1,1.09,2.621v4.351a4.8,4.8,0,0,0,.4,2.162V23Zm-2.217-1.865a2.309,2.309,0,0,0,1.095-.264,1.737,1.737,0,0,0,.742-.71V18.436h-1q-2.013,0-2.143,1.392l-.009.158a1.073,1.073,0,0,0,.353.826A1.369,1.369,0,0,0,117.581,21.135Zm12.228-5.659a7.284,7.284,0,0,0-.965-.074,1.964,1.964,0,0,0-1.995,1.03V23h-2.681V12.962H126.7l.074,1.2a2.484,2.484,0,0,1,2.236-1.382,2.809,2.809,0,0,1,.835.121ZM136.637,23a2.977,2.977,0,0,1-.269-.9,3.244,3.244,0,0,1-2.533,1.085,3.564,3.564,0,0,1-2.445-.854,2.745,2.745,0,0,1-.969-2.152A2.837,2.837,0,0,1,131.6,17.73a5.837,5.837,0,0,1,3.419-.863h1.234v-.575a1.654,1.654,0,0,0-.357-1.113,1.405,1.405,0,0,0-1.127-.417,1.6,1.6,0,0,0-1.062.325,1.1,1.1,0,0,0-.385.891h-2.681a2.693,2.693,0,0,1,.538-1.614A3.557,3.557,0,0,1,132.7,13.2a5.545,5.545,0,0,1,2.208-.422,4.381,4.381,0,0,1,2.946.932,3.262,3.262,0,0,1,1.09,2.621v4.351a4.8,4.8,0,0,0,.4,2.162V23Zm-2.217-1.865a2.309,2.309,0,0,0,1.095-.264,1.737,1.737,0,0,0,.742-.71V18.436h-1q-2.013,0-2.143,1.392l-.009.158a1.073,1.073,0,0,0,.353.826A1.369,1.369,0,0,0,134.419,21.135Zm15.938,2.05a4.928,4.928,0,0,1-3.595-1.354,4.815,4.815,0,0,1-1.387-3.609v-.26a6.064,6.064,0,0,1,.584-2.7,4.289,4.289,0,0,1,1.656-1.837,4.648,4.648,0,0,1,2.445-.645,4.166,4.166,0,0,1,3.242,1.3,5.278,5.278,0,0,1,1.183,3.683v1.095h-6.392a2.491,2.491,0,0,0,.784,1.577,2.37,2.37,0,0,0,1.656.594,2.894,2.894,0,0,0,2.421-1.123l1.317,1.475a4.025,4.025,0,0,1-1.633,1.331A5.357,5.357,0,0,1,150.358,23.186Zm-.306-8.248a1.675,1.675,0,0,0-1.294.54,2.8,2.8,0,0,0-.635,1.547h3.729v-.214a2,2,0,0,0-.482-1.384A1.729,1.729,0,0,0,150.052,14.938ZM158.837,23h-2.69V8.75h2.69ZM5.65,46.186a4.928,4.928,0,0,1-3.595-1.354A4.815,4.815,0,0,1,.668,41.222v-.26a6.064,6.064,0,0,1,.584-2.7,4.289,4.289,0,0,1,1.656-1.837,4.648,4.648,0,0,1,2.445-.645,4.166,4.166,0,0,1,3.242,1.3,5.278,5.278,0,0,1,1.183,3.683v1.095H3.386A2.491,2.491,0,0,0,4.17,43.43a2.37,2.37,0,0,0,1.656.594A2.894,2.894,0,0,0,8.248,42.9l1.317,1.475a4.025,4.025,0,0,1-1.633,1.331A5.357,5.357,0,0,1,5.65,46.186Zm-.306-8.248a1.675,1.675,0,0,0-1.294.54,2.8,2.8,0,0,0-.635,1.547H7.144v-.214a2,2,0,0,0-.482-1.384A1.729,1.729,0,0,0,5.344,37.938Zm8.424-1.976.083,1.16a3.5,3.5,0,0,1,2.885-1.345,2.913,2.913,0,0,1,2.375.937,4.372,4.372,0,0,1,.8,2.8V46H17.228V39.58a1.739,1.739,0,0,0-.371-1.239,1.661,1.661,0,0,0-1.234-.385,1.844,1.844,0,0,0-1.7.965V46H11.244V35.962Zm13.61,7.264a.864.864,0,0,0-.487-.775,5.533,5.533,0,0,0-1.563-.506q-3.581-.751-3.581-3.043a2.758,2.758,0,0,1,1.109-2.231,4.472,4.472,0,0,1,2.9-.9,4.813,4.813,0,0,1,3.057.9,2.836,2.836,0,0,1,1.146,2.338H27.275a1.3,1.3,0,0,0-.371-.951,1.57,1.57,0,0,0-1.16-.376,1.6,1.6,0,0,0-1.048.306.966.966,0,0,0-.371.779.826.826,0,0,0,.422.719,4.343,4.343,0,0,0,1.424.473,11.632,11.632,0,0,1,1.688.45,2.774,2.774,0,0,1,2.125,2.7,2.618,2.618,0,0,1-1.178,2.222,5.083,5.083,0,0,1-3.043.849,5.309,5.309,0,0,1-2.24-.45A3.759,3.759,0,0,1,21.987,44.5a2.867,2.867,0,0,1-.557-1.693h2.542A1.4,1.4,0,0,0,24.5,43.9a2.1,2.1,0,0,0,1.317.38,1.941,1.941,0,0,0,1.164-.292A.909.909,0,0,0,27.377,43.226ZM37.527,46a2.977,2.977,0,0,1-.269-.9,3.244,3.244,0,0,1-2.533,1.085,3.564,3.564,0,0,1-2.445-.854,2.745,2.745,0,0,1-.969-2.152,2.837,2.837,0,0,1,1.183-2.449,5.837,5.837,0,0,1,3.419-.863h1.234v-.575a1.654,1.654,0,0,0-.357-1.113,1.405,1.405,0,0,0-1.127-.417,1.6,1.6,0,0,0-1.062.325,1.1,1.1,0,0,0-.385.891H31.534a2.693,2.693,0,0,1,.538-1.614A3.557,3.557,0,0,1,33.593,36.2a5.545,5.545,0,0,1,2.208-.422,4.381,4.381,0,0,1,2.946.932,3.262,3.262,0,0,1,1.09,2.621v4.351a4.8,4.8,0,0,0,.4,2.162V46ZM35.31,44.135a2.309,2.309,0,0,0,1.095-.264,1.737,1.737,0,0,0,.742-.71V41.436h-1q-2.013,0-2.143,1.392l-.009.158a1.073,1.073,0,0,0,.353.826A1.369,1.369,0,0,0,35.31,44.135Zm9.1-8.173.083,1.123a3.528,3.528,0,0,1,2.885-1.308,2.677,2.677,0,0,1,2.663,1.531,3.447,3.447,0,0,1,3.015-1.531,2.994,2.994,0,0,1,2.431.951,4.371,4.371,0,0,1,.8,2.862V46H53.6V39.6a1.911,1.911,0,0,0-.334-1.248,1.48,1.48,0,0,0-1.178-.394,1.673,1.673,0,0,0-1.67,1.15L50.422,46H47.741V39.608a1.888,1.888,0,0,0-.343-1.262,1.5,1.5,0,0,0-1.169-.39,1.738,1.738,0,0,0-1.651.946V46H41.9V35.962Zm22.98,5.112a6.078,6.078,0,0,1-1.03,3.762,3.411,3.411,0,0,1-2.876,1.35,3.134,3.134,0,0,1-2.607-1.252L60.757,46H58.345V31.75h2.681v5.112a3.054,3.054,0,0,1,2.44-1.085,3.439,3.439,0,0,1,2.881,1.35,6.087,6.087,0,0,1,1.044,3.8Zm-2.681-.195a3.993,3.993,0,0,0-.482-2.222,1.631,1.631,0,0,0-1.438-.7A1.769,1.769,0,0,0,61.026,39v3.961a1.793,1.793,0,0,0,1.781,1.058,1.655,1.655,0,0,0,1.707-1.28A6.6,6.6,0,0,0,64.709,40.879ZM71.872,46h-2.69V31.75h2.69Zm6.828.186A4.928,4.928,0,0,1,75.1,44.831a4.815,4.815,0,0,1-1.387-3.609v-.26a6.064,6.064,0,0,1,.584-2.7,4.289,4.289,0,0,1,1.656-1.837,4.648,4.648,0,0,1,2.445-.645,4.166,4.166,0,0,1,3.242,1.3,5.278,5.278,0,0,1,1.183,3.683v1.095H76.436a2.491,2.491,0,0,0,.784,1.577,2.37,2.37,0,0,0,1.656.594A2.894,2.894,0,0,0,81.3,42.9l1.317,1.475a4.025,4.025,0,0,1-1.633,1.331A5.357,5.357,0,0,1,78.7,46.186Zm-.306-8.248a1.675,1.675,0,0,0-1.294.54,2.8,2.8,0,0,0-.635,1.547h3.729v-.214a2,2,0,0,0-.482-1.384A1.729,1.729,0,0,0,78.394,37.938Z" transform="translate(1089.182 9364.354)" fill="#12263f"/>
    <g id="Grupo_152503" data-name="Grupo 152503" transform="translate(794.111 9482.939)">
      <path id="Trazado_114092" data-name="Trazado 114092" d="M643.475,949.533c14.6,8.426,38.262,8.426,52.863,0s14.6-22.09,0-30.518-38.266-8.43-52.863,0S628.878,941.106,643.475,949.533Z" transform="translate(-623.597 -689.594)" opacity="0.3"/>
      <path id="Trazado_114093" data-name="Trazado 114093" d="M625.211,777.3s-.341,3.307-.382,4.76,1.279,5.744,6.673,6.214,13.01-4.85,13.01-4.85l-2.235-8.226Z" transform="translate(-623.821 -693.598)" fill="#f0c6b4"/>
      <path id="Trazado_114094" data-name="Trazado 114094" d="M653.34,734.764c.663.456,1.755-.051,2.172.418,3.221,5.324-.648,8.2-.648,8.2l-.923,7.392L659.047,756H673.4l4.524-1.848.7-4.206s-3.382-4.781-3.774-16.339c.088-3.039-4.511-6.362-4.511-6.362h-16.4A68,68,0,0,1,653.34,734.764Z" transform="translate(-622.991 -694.995)" fill="#f0c6b4"/>
      <path id="Trazado_114095" data-name="Trazado 114095" d="M646.087,743.877c1.733.482-2.876,13.251-2.876,13.251s-1.282,9.836-1.949,23.692c-5.185,4.676-15.543.547-17.412-.7,3.407-13.819,4.067-19.779,4.067-19.779S625.62,738.663,646.087,743.877Z" transform="translate(-623.85 -694.534)" fill="#1c4b94"/>
      <path id="Trazado_114096" data-name="Trazado 114096" d="M690.916,778.631c-3.967,11.728-3.967,25.5-3.967,25.5l-21.009,8.844-17.195-2.041-6.463-6.294a44.637,44.637,0,0,0,1.022-12.368c-1.022-11.1-6.335-14.325-7.482-29.7-.963-12.848,9.919-18.7,9.919-18.7l1.927-.392,2.942,3.68,4.767-4.246s.444,6.886,10.508,8.539,13.252-1.975,13.252-1.975l5.657,5.335,3.177-2.041,6.346,7.822S692.077,775.187,690.916,778.631Z" transform="translate(-623.503 -694.538)" fill="#2565c4"/>
      <path id="Trazado_114097" data-name="Trazado 114097" d="M651.083,922.771s-.417,9.745-1.612,12.286c-.685,1.443-4.272,2.249-7.273,1.04s-4.422-10.393-5.056-14.6c-.571-3.77,3.481-5.826,3.481-5.826Z" transform="translate(-623.464 -689.508)" fill="#663f30"/>
      <path id="Trazado_114098" data-name="Trazado 114098" d="M684.282,929.923c2.55,1.594,13.967.194,16.447,1.277s5.2,7.991-1.656,9.625c-7.207,1.722-12.9,5.529-15.242,5.994-7.968,1.6-9.757-.388-9.882-2.037a80.089,80.089,0,0,1,.319-11.8S673.979,929.54,684.282,929.923Z" transform="translate(-622.394 -689.093)" fill="#663f30"/>
      <path id="Trazado_114099" data-name="Trazado 114099" d="M688.843,820.128c3.034,24.872,0,47.446,0,60.837,0,25.519,1.89,53.145,1.89,53.145s-1.036,4.356-7.665,5.04c-10.131,1.038-9.874-4.008-9.874-4.008s-3.121-31.35-1.208-50.1c-4.972-21.8-9.468-52.159-9.468-52.159C664.171,832.953,688.843,818.217,688.843,820.128Z" transform="translate(-622.724 -692.295)" fill="#a5978c"/>
      <path id="Trazado_114100" data-name="Trazado 114100" d="M642.247,802.911s1.191,3.063,19.708,4.25c15.487.989,24.959-4.76,24.959-4.76s3.627,13.723,2.432,22.229-15.472,10.931-25.511,12.629c-2.876,22.786-4.119,35.063-5.262,43.534-.718,5.3-1.711,45.012-1.711,45.012s-2.608,3.283-10.746,3.283-9.182-6.514-9.182-6.514c1.916-15.933,3.217-38.907,2.426-51.134C635.872,817.708,642.247,802.911,642.247,802.911Z" transform="translate(-623.469 -692.806)" fill="#a5978c"/>
      <path id="Trazado_114101" data-name="Trazado 114101" d="M704.6,718.269c-.788-3.649-1.792-3.893-1.465-8.8s-.894-8.671,1.465-8.611c1.663.047,1.677,7.784,5.206,5.295V695.907s5.488,3.657,5.7,9.481-2.88,8.611-3.9,11.8S705.439,718.973,704.6,718.269Z" transform="translate(-621.543 -695.907)" fill="#292929"/>
      <path id="Trazado_114102" data-name="Trazado 114102" d="M705.081,751.24s9.94-3.952,12.088-4.621c-5.3-7.822-9.405-21.406-12.615-28.908,1.121-2.433,5.876-4.138,7.144-.766,5.016,8.931,18.291,16.647,19.983,27.551.132,1.887.623,12.527-3.477,13.977-4.338,1.531-17.873,6.174-17.873,6.174Z" transform="translate(-621.5 -695.349)" fill="#f0c6b4"/>
      <path id="Trazado_114103" data-name="Trazado 114103" d="M686.493,752.7a65.337,65.337,0,0,1,2.945,25.85S708.241,767,721.662,763.5c3.514-6.037-3.041-16.386-4.645-17.957-7.566,1.647-13.974,3.166-13.974,3.166S693.348,748.875,686.493,752.7Z" transform="translate(-622.026 -694.462)" fill="#1c4b94"/>
      <path id="Trazado_114104" data-name="Trazado 114104" d="M650.379,719.991c-.641,2.623-.678,9.168,3.085,15.3,2.652-1.754,4.565-9.118,4.565-9.118l5.9-4.314c.33-1.623-12.79-13.8-13.622-12.644C648.012,716.288,649.488,719.1,650.379,719.991Z" transform="translate(-623.115 -695.522)" fill="#f0c6b4"/>
      <path id="Trazado_114105" data-name="Trazado 114105" d="M677.734,730.455s5.221-7.585,4.012-16.715c-1.374-10.341-17.3-14.473-20.656-13.573-3.573.958-4.339,3.316-4.339,3.316s-5.679.189-7.276,5.676c-1.576,5.429,1.868,8.629,2.433,14.921.336,3.82,1.227-3.493,2.55-1.149,1.722,3.06-.256,6.441,3.824,11.987a12.407,12.407,0,0,0,19.452-4.463Z" transform="translate(-623.116 -695.786)" fill="#663f30"/>
      <path id="Trazado_114106" data-name="Trazado 114106" d="M658.886,703.407c7.53-1.422,12.755,4.64,12.755,4.64S665.709,703.392,658.886,703.407Z" transform="translate(-622.83 -695.695)" fill="#4a2e23"/>
      <path id="Trazado_114107" data-name="Trazado 114107" d="M686.764,803.076c-1.4-3.133-13.8-6.76-14.059-22.441,0,0-10.241.961-16.832-1.366,2.423,10.032-9.742,23.048-13.776,24.316C644.075,820.732,686.382,819.911,686.764,803.076Z" transform="translate(-623.319 -693.479)" fill="#a5978c"/>
      <path id="Trazado_114108" data-name="Trazado 114108" d="M686.963,752c2.206,11.225-14.882,29.508-14.882,29.508l-3.679,5.706-4.883-5.615s21.7-21.247,14.809-32.3A36.672,36.672,0,0,0,686.963,752Z" transform="translate(-622.695 -694.352)" fill="#a5978c"/>
      <path id="Trazado_114109" data-name="Trazado 114109" d="M647.394,743.489c-8.166,9.435,8.39,36.838,8.39,36.838l3.382,7.072,4.888-5.615s-18.243-25.138-8.951-38.862A10.377,10.377,0,0,1,647.394,743.489Z" transform="translate(-623.23 -694.538)" fill="#a5978c"/>
      <path id="Trazado_114110" data-name="Trazado 114110" d="M650.189,833.852l27.831-.724-25.787,4.091Z" transform="translate(-623.083 -691.911)" fill="#7c7169"/>
    </g>
    <g id="Grupo_152504" data-name="Grupo 152504" transform="translate(455.878 9488.863)">
      <path id="Trazado_114111" data-name="Trazado 114111" d="M306.133,937.531c14.6,8.429,38.262,8.425,52.856,0s14.6-22.092,0-30.521-38.259-8.423-52.856,0S291.539,929.1,306.133,937.531Z" transform="translate(-295.187 -695.867)" opacity="0.3"/>
      <path id="Trazado_114112" data-name="Trazado 114112" d="M310.209,903.6s-3.443,8.738-2.077,10.778,2.894,3.063,6.928,2.591,5.514-4.618,11.109-7.14c2.168-.979-1.1-8.27-1.1-8.27Z" transform="translate(-294.82 -695.842)" fill="#663f30"/>
      <path id="Trazado_114113" data-name="Trazado 114113" d="M352.408,718.8c-.023,3.358-2.364,5.311-3.258,7.821,0,0-4.216.188-5.155.381a8.137,8.137,0,0,0-2.5,1.671l1.535,11.212s8.046-1.093,11.593-1.762,7.47-4.089,8.192-7.278-.022-10.6-.022-10.6S353.284,717.824,352.408,718.8Z" transform="translate(-293.839 -701.171)" fill="#f0c6b4"/>
      <path id="Trazado_114114" data-name="Trazado 114114" d="M307.37,736.229c1.576-14.687,18.03-8.9,18.03-8.9s7.273-1.53,20.983-1.176c4.408,5.432,3.957,13.658,2.612,15.459-19.459,3.222-23.379,3.523-23.379,3.523S305.938,749.5,307.37,736.229Z" transform="translate(-294.835 -700.951)" fill="#1c4b94"/>
      <path id="Trazado_114115" data-name="Trazado 114115" d="M315.785,728.385C298.54,741,309.15,764.657,309.15,764.657s.033,2.94,3.495,10.735c.392,1.383,1.448,12.672,1.448,12.672l7.074,15.385,2.961,6.888h12.751l7.14-15.388,2.4-27.1s-1.989-12.943-5.942-19.714c-2.042-3.572-6.123-9.1-8.127-10.338-.352-.3.165,2.757.165,2.757s-1.334,2.745-8.053,2.658-9.289-2.466-9.289-2.466C312.353,736.6,316.009,737.874,315.785,728.385Z" transform="translate(-294.875 -700.885)" fill="#2565c4"/>
      <path id="Trazado_114116" data-name="Trazado 114116" d="M341.419,750.216s-11.962-18.345-20.247-18.022c-7.082.267-12.849,8.339-14.337,12.882-1.637,5.013.5,14.172.5,14.172s-2.147-4.726-1.418-12.986c.546-6.1,3.078-16.408,14.813-17.874,9.424-1.178,16.957,13.215,19.386,18.78C340.712,748.525,341.419,750.216,341.419,750.216Z" transform="translate(-294.879 -700.887)" fill="#a5978c"/>
      <path id="Trazado_114117" data-name="Trazado 114117" d="M314.945,740.822s2.573,2.381,9.289,2.466,8.053-2.658,8.053-2.658l-.231-3.849.425-10.968H316.239l-.685,2.648C315.778,737.949,312.121,736.673,314.945,740.822Z" transform="translate(-294.643 -700.96)" fill="#c7a495"/>
      <path id="Trazado_114118" data-name="Trazado 114118" d="M311.039,809.591c-.967,21.257,2.5,33.247,1.612,48.549-7.675,23.508-1.612,32.564-3.451,47.908,0,0,1.033,4.356,7.664,5.038,10.123,1.04,11.348-5.415,11.348-5.415s1.645-29.943-.264-48.69c4.972-21.8,1.286-36.5,1.286-36.5C327.57,820.551,311.039,807.677,311.039,809.591Z" transform="translate(-294.795 -698.526)" fill="#7c7169"/>
      <path id="Trazado_114119" data-name="Trazado 114119" d="M337.464,914.84c3.356,7.4,11.26,8.33,18.323,12.754,1.612,1.1,1.736,4.164.252,5.486a14.984,14.984,0,0,1-12.794,2.994c-2.953-.7-9.339-3.649-12.054-4.849-1.66-.407-8.98-.866-10.061-5.289-.84-3.446,1.388-13.888,1.388-13.888S335,913.546,337.464,914.84Z" transform="translate(-294.437 -695.537)" fill="#663f30"/>
      <path id="Trazado_114120" data-name="Trazado 114120" d="M343.9,798.944s-1.146,5.311-13.515,5.311c-13.4,0-17.861-18.875-17.861-18.875S307.2,798,307.293,807.7c.084,8.583,2.169,18.652,11.1,27.324,2.891,22.786,3.818,33.847,4.964,42.31.718,5.3-3.437,45.019-3.437,45.019s2.7,3.279,10.842,3.279,11.223-5.192,11.223-5.192c-1.909-15.934.608-38.282,1.4-50.5C346.874,816.2,343.9,798.944,343.9,798.944Z" transform="translate(-294.835 -699.225)" fill="#a5978c"/>
      <path id="Trazado_114121" data-name="Trazado 114121" d="M331.5,805.339c10.819-5.223,13.285-23.418,8.614-39.109,2-11.477-.682-19.6-.682-19.6s7.225,11.051,7.647,21.768c.52,13.116-3.144,25.24-3.28,36.817-.033,2.725-1.817,2.973-1.817,2.973l-12.036,3.037S328.249,809.979,331.5,805.339Z" transform="translate(-294.188 -700.354)" fill="#a5978c"/>
      <path id="Trazado_114122" data-name="Trazado 114122" d="M340.4,710.7s2.557,6.48,2.385,7.631-1.364,2.631-1.4,3.953,3.459,6.595,3.389,7.467c-.055.872-3.055,1.121-3.055,1.121s-.08,5.905-.586,6.779a3.5,3.5,0,0,1-2.811,1.531c-11.351-.871-12.8-2.74-14.088-4.018s-1.789-4.27-1.789-4.27-3.554.36-4.953-2.666c-.3-.588-.949-2.394-.949-2.394l-1.624-6.544,6.574-11.162,9.434-2.8Z" transform="translate(-294.613 -701.556)" fill="#f0c6b4"/>
      <path id="Trazado_114123" data-name="Trazado 114123" d="M316.655,705.875c9.468-9.3,24.856-1.1,23.911,4.53-.827,4.91-8.093,3.508-9.438,6.247-2.517,5.157-5.361,3.571-6.375,9.184-1.912-2.041-2.462-4.877-5.965-2.552-2.927,1.944.165,4.149-.322,6.3-2.121,1.7-3.151-.559-4.041-2.987C312.672,721.856,309.448,712.956,316.655,705.875Z" transform="translate(-294.693 -701.663)" fill="#d49c00"/>
      <path id="Trazado_114124" data-name="Trazado 114124" d="M332.064,804.57c-8.46-5.465-12.241-13.529-14.773-21.125a41.974,41.974,0,0,0-5.485-10.385s1.531,10.642-.912,16.824l-.917,10.055,12.077,12.756S333.067,810.907,332.064,804.57Z" transform="translate(-294.757 -699.584)" fill="#a5978c"/>
      <path id="Trazado_114125" data-name="Trazado 114125" d="M379.589,806.114c1.312-2.211,3.645-2.495,4.844-3.951,1.783-2.169,1.4-5.4,3.7-4.593s-1.418,6.685.282,7.975l7.064,4.077c-5.628,5.694-17.338,3.579-17.338,3.579l.2-4.515S377.908,808.934,379.589,806.114Z" transform="translate(-292.772 -698.874)" fill="#292929"/>
      <path id="Trazado_114126" data-name="Trazado 114126" d="M345.631,780.481l9.607,10.187a71.031,71.031,0,0,1,7.266,3.952c3.773,2.164,8.034,7.656,18.327,11.988,2.426,3.348.5,6.533-1.451,7.088-10.922-3.319-22.185-6.252-31.571-12.841-4.214-2.79-12.3-13.095-12.3-13.095Z" transform="translate(-294.013 -699.368)" fill="#f0c6b4"/>
      <path id="Trazado_114127" data-name="Trazado 114127" d="M318.133,754.692c13.076-6.868,17.429,10.021,17.429,10.021a79.908,79.908,0,0,1,14.032,19.23c-2.055,6.681-11.021,10.4-13.259,10.288-13.524-14.372-17.107-18.789-17.107-18.789S306.317,760.9,318.133,754.692Z" transform="translate(-294.664 -700.167)" fill="#1c4b94"/>
      <path id="Trazado_114128" data-name="Trazado 114128" d="M342.693,762.849s-9.332-13.308-20.826-11.95c-7.041.836-10.251,3.259-11.589,7.847-2.257,7.722,3.778,18.482,3.778,18.482l-2.184-3.34s-4.173-7.724-4.166-15.257c.007-6.124,1.235-12.448,12.97-13.915s21.592,11.667,21.592,11.667Z" transform="translate(-294.823 -700.413)" fill="#a5978c"/>
      <path id="Trazado_114129" data-name="Trazado 114129" d="M352.161,717.647c.378-5.151,8.259-6.649,8.259-6.649s4.082-.9,4.715,2.354.8,6.7-.894,7.214c-2.4.72-2.136-4.436-2.136-4.436l-.083,6.978c-.1.193-1.972.239-2.085.4C359.035,724.79,351.2,723.314,352.161,717.647Z" transform="translate(-293.531 -701.395)" fill="#292929"/>
    </g>
    <g id="Grupo_152515" data-name="Grupo 152515" transform="translate(1130.17 9492.034)">
      <path id="Trazado_114130" data-name="Trazado 114130" d="M961.625,930.421c14.965,8.642,39.23,8.642,54.2,0s14.966-22.648,0-31.288-39.223-8.635-54.2,0S946.659,921.772,961.625,930.421Z" transform="translate(-950.401 -699.273)" opacity="0.3"/>
      <path id="Trazado_114131" data-name="Trazado 114131" d="M1026.2,760.113a64.783,64.783,0,0,1,7.242,10.466l5.262,14.951a54.028,54.028,0,0,0-4.208,5.221c-4.689-4.087-8.449-6.068-12.655-11.463-.36-.637-7.682-16.121-7.682-16.121l8.47-4.531A14.347,14.347,0,0,1,1026.2,760.113Z" transform="translate(-948.544 -703.175)" fill="#f0c6b4"/>
      <path id="Trazado_114132" data-name="Trazado 114132" d="M1006.085,897.112c7.493,6.271,14.975,6.919,16.764,8.526s2.444,6.138.539,7.92-7.728.347-10.946-.844-5.686-3.056-7.941-3.484c-2.2-.4-8.659-.063-12.144-2.991-1.551-1.9-.363-11.558-.363-11.558S1003.466,896.394,1006.085,897.112Z" transform="translate(-949.202 -699.214)" fill="#303030"/>
      <path id="Trazado_114133" data-name="Trazado 114133" d="M994.067,861.032c-4.93,15.1-2.858,38.774-2.858,38.774s.8,2.511,9.654,2.511c6.463,0,7.786-3.737,7.786-3.737-1.191-19.593,6.5-65.347,2.973-91.191-.977-2.191-23.989,15.579-23.989,15.579S993.094,847.856,994.067,861.032Z" transform="translate(-949.316 -701.761)" fill="#7c7169"/>
      <path id="Trazado_114134" data-name="Trazado 114134" d="M975.153,910.123a15.8,15.8,0,0,0,4.135,11.785c1.94,2.227.616,7.472-.357,7.595-6.954,2.192-12.065.924-14.569-4.632a38.957,38.957,0,0,1-2.983-10.175c-.206-1.944,1.341-6.646,1.341-6.646C963.025,908,973.535,910.242,975.153,910.123Z" transform="translate(-950.081 -698.824)" fill="#303030"/>
      <path id="Trazado_114135" data-name="Trazado 114135" d="M978.53,803.5s-8.257,7.013-9.92,12.886-1.428,25.069-1.516,50.526a160.132,160.132,0,0,0-6.369,44.744s1.086,5.83,8.7,5.123,8.239-5.123,8.239-5.123,2.728-27.7,4.363-32.234c6.6-18.34,11.764-43.2,11.278-53.607,12.188-4.39,18.12-17.339,18.12-17.339l-11.261-7.445Z" transform="translate(-950.1 -701.941)" fill="#a5978c"/>
      <path id="Trazado_114136" data-name="Trazado 114136" d="M1003.947,732c-10.809,6.943-1.538,18.851-1.538,18.851a117.746,117.746,0,0,0,10.046,18.75c6.53,1.425,15.112-6.173,14.32-10.459-4.005-6.859-9.387-15.837-9.387-15.837S1011.128,727.387,1003.947,732Z" transform="translate(-948.994 -703.975)" fill="#1c4b94"/>
      <path id="Trazado_114137" data-name="Trazado 114137" d="M982.685,727.494c.052,5.711-2.02,8.821-2.02,8.821l-1.523,6.578,5.059,8.723s9.14,1.943,9.325,1.943,8.4-2.622,8.4-2.622l4.7-6.824-7-11.706-5.74-8.155S984.282,726.163,982.685,727.494Z" transform="translate(-949.564 -704.176)" fill="#c7a495"/>
      <path id="Trazado_114138" data-name="Trazado 114138" d="M981.072,736.008c.452-.267-.946,4.992,2.731,8.375,3.7,3.406,9.236,7.55,14.257,4.545,6.174-3.309.319-8.774.319-8.774s3.046-6.828,6.1-5.116,8.953,7.308,9.748,20.067c.7,11.183-.794,56.348-.794,56.348s-23.52,15.483-34.795,14.993c-9.041-.4-11.863-7.2-11.863-7.2a195.4,195.4,0,0,0-.927-43.152c-1.026-7.132-.581-26.348-.581-26.348S974.85,741.288,981.072,736.008Z" transform="translate(-949.97 -703.87)" fill="#2565c4"/>
      <path id="Trazado_114139" data-name="Trazado 114139" d="M1004.4,711.537s4.538,5.133,4.724,11.167a10.42,10.42,0,0,1-.984,3.049s.315,9.443-2.377,15.942c-.42,1.039-3.1,2.388-4.447,2.283-4.741-.125-11.786-6.177-12.728-7.377s-1.716-4.569-1.716-4.569-3.1.609-4.317-4.329c-.612-.914-1.159-10.851-1.159-10.851l6.267-6.884,5.676-1.824Z" transform="translate(-949.498 -704.645)" fill="#f0c6b4"/>
      <path id="Trazado_114140" data-name="Trazado 114140" d="M982.606,727.8s-.255-3.778.911-3.778c2.272,0,3.778,5.61,6.74,5.852.868.094,1.488-4.091,1.9-5.362,1.284-3.9-5.046-8.295-2.546-10.732s7.192,4.328,13.89,2.325c1.044-.668,1.957-4.212-.115-6.52s-11.523-9.026-19.563-1.039S981.857,728.671,982.606,727.8Z" transform="translate(-949.547 -704.744)" fill="#663f30"/>
      <g id="Grupo_152505" data-name="Grupo 152505" transform="translate(60.397 71.409)">
        <path id="Trazado_114141" data-name="Trazado 114141" d="M1015.2,791.442l2.657-1.534,2.64-12.367-4.128-1.656-3.134,12.038Z" transform="translate(-1008.968 -774.082)" fill="#1c7c94"/>
        <path id="Trazado_114142" data-name="Trazado 114142" d="M1012.08,774.133l-2.991,13.754,6.229,3.606s1.036-11.982,2.871-14.359C1017.577,776.287,1012.08,774.133,1012.08,774.133Z" transform="translate(-1009.089 -774.133)" fill="#25a4c4"/>
      </g>
      <path id="Trazado_114143" data-name="Trazado 114143" d="M1004.164,774.817s6.464-2.756,8.2-3l-.091,4.425c-.07.939,3.7,1.153,5.9,1.362,2.2.193,3.138-.344,4.829.841.246,2.1-2.679,2.191-2.559,3.511a5.183,5.183,0,0,1-5.364,5.655c-4.686,0-10.34-3.61-10.34-3.61l-2.094-.322-1.765-5.183Z" transform="translate(-948.931 -702.791)" fill="#a8a8a8"/>
      <path id="Trazado_114144" data-name="Trazado 114144" d="M980.54,781.889s.245,2.03.407,3.494c6.744-3.568,12.349-4.961,24.212-10.651a9.28,9.28,0,0,0,.571,9.188S991.8,798.6,984.083,800.961c-2.66.809-13.368-.752-14.754-3.046s-2.6-14.4-2.6-14.4Z" transform="translate(-949.925 -702.706)" fill="#f0c6b4"/>
      <path id="Trazado_114145" data-name="Trazado 114145" d="M970.46,747.349c-12.647,2.2-8.736,16.775-8.736,16.775s.613,8.281,2.843,21.345c5.463,3.852,16.916.1,17.85-4.156-1.019-7.882-2.07-18.653-2.07-18.653S978.874,745.885,970.46,747.349Z" transform="translate(-950.087 -703.506)" fill="#1c4b94"/>
      <g id="Grupo_152506" data-name="Grupo 152506" transform="translate(84.911 79.396)">
        <path id="Trazado_114146" data-name="Trazado 114146" d="M1032.909,782.9v17.518a.9.9,0,0,0,.522.732,2.829,2.829,0,0,0,2.521,0,.891.891,0,0,0,.519-.732V782.9Z" transform="translate(-1032.909 -781.864)" fill="#333"/>
        <path id="Trazado_114147" data-name="Trazado 114147" d="M1035.952,783.652a2.784,2.784,0,0,1-2.521,0,.769.769,0,0,1,0-1.453,2.759,2.759,0,0,1,2.521,0A.769.769,0,0,1,1035.952,783.652Z" transform="translate(-1032.909 -781.894)" fill="#696969"/>
      </g>
      <path id="Trazado_114148" data-name="Trazado 114148" d="M1033.566,787.667c.354,2.135-.171,4.008-1.182,4.17s-2.1-1.428-2.465-3.561.181-4,1.19-4.16S1033.213,785.542,1033.566,787.667Z" transform="translate(-948.088 -702.434)" fill="#a8a8a8"/>
      <path id="Trazado_114149" data-name="Trazado 114149" d="M1036.773,786.172s-4.447.4-5.256,1.58-.017,8.043.742,8.529a5.057,5.057,0,0,0,3.827.939c1.848-.28,2.577-.759,3.886-2.808,1.3-2.02.354-7.98.354-7.98l-1.936-1.3Z" transform="translate(-948.048 -702.404)" fill="#a8a8a8"/>
      <g id="Grupo_152514" data-name="Grupo 152514" transform="translate(59.619 54.957)">
        <path id="Trazado_114150" data-name="Trazado 114150" d="M1043.257,775l-28.544-16.541a1.583,1.583,0,0,0-1.589-.169l-.014-.013-4.177,2.679,4.058,4.362.186,1.5a7.926,7.926,0,0,0,3.228,5.343l26.846,15.564,1.389-.224.007-10.69Z" transform="translate(-1008.315 -758.147)" fill="#5bbddb"/>
        <path id="Trazado_114151" data-name="Trazado 114151" d="M1045.018,777.11l-4.062,2.6v10.5l4.062-2.609Z" transform="translate(-1007.382 -757.595)" fill="#418399"/>
        <path id="Trazado_114152" data-name="Trazado 114152" d="M1043.784,776.426l-1.383-1.9-4.048,2.6,1.387,1.821Z" transform="translate(-1007.458 -757.67)" fill="#2f6070"/>
        <path id="Trazado_114153" data-name="Trazado 114153" d="M1039.227,777.526l-28.554-16.534c-1.526-.872-2.564.092-2.3,2.154l.767,6.208a7.949,7.949,0,0,0,3.228,5.34l26.859,15.56,1.387-.224V779.346Z" transform="translate(-1008.332 -758.073)" fill="#25a4c4"/>
        <g id="Grupo_152508" data-name="Grupo 152508" transform="translate(5.566 8.059)">
          <path id="Trazado_114154" data-name="Trazado 114154" d="M1032.144,781.547l-6.891-3.988a.637.637,0,0,1-.294-.5l-.013-.01c.013-.178.136-.259.3-.162l6.9,3.978a.7.7,0,0,1,.3.508h0C1032.441,781.562,1032.3,781.639,1032.144,781.547Z" transform="translate(-1013.415 -765.661)" fill="#1a3640"/>
          <g id="Grupo_152507" data-name="Grupo 152507">
            <path id="Trazado_114155" data-name="Trazado 114155" d="M1028.814,772.935l-11.121-6.414c-2.182-1.267-3.947-.238-3.947,2.276l-.006.095a8.713,8.713,0,0,0,3.963,6.82l11.11,6.419Z" transform="translate(-1013.741 -765.978)" fill="#1c7c94"/>
            <path id="Trazado_114156" data-name="Trazado 114156" d="M1024.377,771.017l-5.9-3.393v8l5.889,3.4Z" transform="translate(-1013.603 -765.93)" fill="#25a4c4"/>
            <path id="Trazado_114157" data-name="Trazado 114157" d="M1027.866,773.037l-2.85-1.646L1025,779.4l2.864,1.646Z" transform="translate(-1013.413 -765.82)" fill="#f5f5f5"/>
            <path id="Trazado_114158" data-name="Trazado 114158" d="M1019.351,768.461l-.367-.21,1.008,7.885.361.207Z" transform="translate(-1013.588 -765.911)" fill="#26221f"/>
            <path id="Trazado_114159" data-name="Trazado 114159" d="M1020,768.838l-.367-.21,1.005,7.878.371.21Z" transform="translate(-1013.569 -765.9)" fill="#26221f"/>
            <path id="Trazado_114160" data-name="Trazado 114160" d="M1020.658,769.216l-.367-.21,1.008,7.878.361.21Z" transform="translate(-1013.55 -765.889)" fill="#26221f"/>
            <path id="Trazado_114161" data-name="Trazado 114161" d="M1021.3,769.594l-.368-.214,1.012,7.882.361.207Z" transform="translate(-1013.531 -765.878)" fill="#26221f"/>
            <path id="Trazado_114162" data-name="Trazado 114162" d="M1021.961,769.968l-.371-.207,1.005,7.878.371.207Z" transform="translate(-1013.513 -765.867)" fill="#26221f"/>
          </g>
        </g>
        <path id="Trazado_114163" data-name="Trazado 114163" d="M1045.054,777.132l-1.31-.76h0l-4.044,2.517,1.292.844Z" transform="translate(-1007.419 -757.616)" fill="#224652"/>
        <path id="Trazado_114164" data-name="Trazado 114164" d="M1040.993,779.662l-1.292-.844v10.6h0l1.292.746Z" transform="translate(-1007.419 -757.545)" fill="#2b5866"/>
        <path id="Trazado_114165" data-name="Trazado 114165" d="M1039.74,778.87l-1.387-1.821v12.728l1.387-.224Z" transform="translate(-1007.458 -757.596)" fill="#366e80"/>
        <g id="Grupo_152513" data-name="Grupo 152513" transform="translate(32.692 22.119)">
          <g id="Grupo_152509" data-name="Grupo 152509">
            <path id="Trazado_114166" data-name="Trazado 114166" d="M1051.765,783.528l-4.377,7.6-6.484-3.75.01-.007a2.242,2.242,0,0,1-.815-1.94,6.87,6.87,0,0,1,3.1-5.375,2.244,2.244,0,0,1,2.087-.259v-.01Z" transform="translate(-1040.099 -779.64)" fill="#333"/>
            <path id="Trazado_114167" data-name="Trazado 114167" d="M1049.4,783.638a6.857,6.857,0,0,0-3.106,5.371c0,1.985,1.389,2.78,3.091,1.786a6.843,6.843,0,0,0,3.106-5.364C1052.5,783.459,1051.095,782.657,1049.4,783.638Z" transform="translate(-1039.919 -779.536)" fill="#4f4f4f"/>
          </g>
          <g id="Grupo_152510" data-name="Grupo 152510" transform="translate(7.047 4.363)">
            <path id="Trazado_114168" data-name="Trazado 114168" d="M1054.756,787.246l-2.657,4.6-4.437-1.219v-.007a1.936,1.936,0,0,1-.714-1.695,6.033,6.033,0,0,1,2.708-4.692,1.994,1.994,0,0,1,1.831-.224V784Z" transform="translate(-1046.947 -783.879)" fill="#424242"/>
            <path id="Trazado_114169" data-name="Trazado 114169" d="M1053.3,787.287a4.144,4.144,0,0,0-1.88,3.253c0,1.191.837,1.681,1.874,1.082a4.136,4.136,0,0,0,1.887-3.253C1055.179,787.172,1054.328,786.681,1053.3,787.287Z" transform="translate(-1046.817 -783.788)" fill="#696969"/>
          </g>
          <g id="Grupo_152511" data-name="Grupo 152511" transform="translate(13.074 9.352)">
            <path id="Trazado_114170" data-name="Trazado 114170" d="M1062.261,793.656l-.826,1.424-8.481-4.9h0a.432.432,0,0,1-.15-.358,1.3,1.3,0,0,1,.589-1.012.387.387,0,0,1,.385-.045v-.01Z" transform="translate(-1052.803 -788.728)" fill="#8f8f8f"/>
            <path id="Trazado_114171" data-name="Trazado 114171" d="M1061.6,793.563a1.282,1.282,0,0,0-.578,1c0,.367.263.525.585.332a1.247,1.247,0,0,0,.577-1C1062.189,793.524,1061.926,793.374,1061.6,793.563Z" transform="translate(-1052.564 -788.589)" fill="#c2c2c2"/>
          </g>
          <g id="Grupo_152512" data-name="Grupo 152512" transform="translate(21.676 14.369)">
            <path id="Trazado_114172" data-name="Trazado 114172" d="M1062.952,794.424l-.5.865-1.156-.424h0a.327.327,0,0,1-.129-.315,1.065,1.065,0,0,1,.5-.883.374.374,0,0,1,.347-.038h0Z" transform="translate(-1061.161 -793.603)" fill="#8f8f8f"/>
            <path id="Trazado_114173" data-name="Trazado 114173" d="M1062.666,794.429a.771.771,0,0,0-.353.617c0,.214.16.3.353.192a.776.776,0,0,0,.354-.612C1063.02,794.4,1062.865,794.311,1062.666,794.429Z" transform="translate(-1061.128 -793.58)" fill="#c2c2c2"/>
          </g>
        </g>
      </g>
    </g>
  </g>
</svg>
